<svg width="25" height="25" viewBox="0 0 25 25" fill="none" xmlns="http://www.w3.org/2000/svg">
<path fill-rule="evenodd" clip-rule="evenodd" d="M1.34444 8.88966C0.834526 8.88966 0.420068 8.4752 0.420068 7.96529C0.416443 3.30716 3.30678 0.416828 7.96128 0.416828H17.0274C21.6928 0.416828 24.5831 3.30716 24.5831 7.96166V17.0242C24.5831 21.692 21.6928 24.5835 17.0274 24.5835H7.9649C3.32853 24.5835 0.416443 21.692 0.416443 17.0278L0.416443 13.9236C0.416443 13.4197 0.826068 13.0101 1.32994 13.0101H1.34082V13.0306C1.85073 13.0306 2.26398 13.4439 2.26519 13.9538V13.9562L2.26519 17.0278C2.26519 20.7168 4.28311 22.7347 7.96128 22.7347H17.0238C20.7044 22.7347 22.7344 20.7047 22.7344 17.0278V7.96529C22.7344 4.2992 20.7044 2.26921 17.0274 2.26921H7.9649C4.28794 2.26921 2.26882 4.2992 2.26882 7.96529C2.26882 8.4752 1.85436 8.88966 1.34444 8.88966ZM7.56265 13.4063L15.2428 13.4063L12.2498 16.3872C11.8945 16.7401 11.8933 17.3128 12.2474 17.6681C12.6002 18.0245 13.1741 18.0221 13.5282 17.6705L18.0764 13.1417C18.0776 13.1417 18.0776 13.1417 18.0776 13.1405C18.1609 13.0583 18.2274 12.958 18.2733 12.8468C18.3192 12.7369 18.3434 12.6197 18.3434 12.5012V12.5C18.3434 12.4916 18.3413 12.4846 18.3392 12.4774C18.3373 12.4712 18.3355 12.465 18.3349 12.4577C18.3301 12.355 18.3132 12.2523 18.2733 12.1545C18.2322 12.0554 18.1706 11.9684 18.0993 11.8886C18.0954 11.8847 18.0928 11.8803 18.0901 11.8758C18.0871 11.8706 18.084 11.8654 18.0788 11.8608C17.9954 11.7762 17.8951 11.7098 17.7851 11.6639C17.6728 11.618 17.5568 11.5938 17.4371 11.5938L7.56265 11.5938C7.0624 11.5938 6.6564 11.9998 6.6564 12.5C6.6564 13.0003 7.0624 13.4063 7.56265 13.4063ZM15.0805 8.87383L13.529 7.32958C13.3514 7.15317 13.1206 7.06496 12.8898 7.06496C12.6566 7.06496 12.4246 7.15317 12.2458 7.332C11.893 7.68725 11.8942 8.26 12.2494 8.61283L13.8009 10.1571C14.1562 10.5099 14.7289 10.5099 15.083 10.1559C15.4358 9.80062 15.4346 9.22667 15.0805 8.87383Z" fill="#00D9B6"/>
</svg>
