<svg width="25" height="25" viewBox="0 0 25 25" fill="none" xmlns="http://www.w3.org/2000/svg">
<path fill-rule="evenodd" clip-rule="evenodd" d="M23.6551 16.1103C24.165 16.1103 24.5795 16.5248 24.5795 17.0347C24.5831 21.6928 21.6928 24.5832 17.0383 24.5832L7.97217 24.5832C3.3068 24.5832 0.416462 21.6928 0.416462 17.0383L0.416462 7.97584C0.416462 3.30805 3.3068 0.416504 7.97217 0.416504L17.0347 0.416504C21.671 0.416504 24.5831 3.30805 24.5831 7.97221L24.5831 11.0764C24.5831 11.5803 24.1735 11.9899 23.6696 11.9899H23.6588V11.9694C23.1488 11.9694 22.7356 11.5561 22.7344 11.0462V11.0438L22.7344 7.97221C22.7344 4.28317 20.7165 2.26525 17.0383 2.26525L7.9758 2.26525C4.29521 2.26525 2.26521 4.29525 2.26521 7.97221L2.26521 17.0347C2.26521 20.7008 4.29521 22.7308 7.97217 22.7308L17.0347 22.7308C20.7116 22.7308 22.7308 20.7008 22.7308 17.0347C22.7308 16.5248 23.1452 16.1103 23.6551 16.1103ZM17.4369 11.5937L9.75676 11.5937L12.7498 8.61275C13.105 8.25992 13.1063 7.68717 12.7522 7.33192C12.3994 6.97546 11.8254 6.97787 11.4714 7.3295L6.92322 11.8583C6.92201 11.8583 6.92201 11.8583 6.92201 11.8595C6.83863 11.9417 6.77217 12.042 6.72626 12.1532C6.68034 12.2631 6.65617 12.3803 6.65617 12.4987V12.5C6.65617 12.5084 6.65827 12.5154 6.66039 12.5226C6.66222 12.5287 6.66407 12.535 6.66463 12.5422C6.66947 12.645 6.68638 12.7477 6.72626 12.8455C6.76734 12.9446 6.82897 13.0316 6.90026 13.1114C6.90417 13.1153 6.90679 13.1197 6.90944 13.1242C6.9125 13.1294 6.91561 13.1346 6.9208 13.1392C7.00418 13.2238 7.10447 13.2902 7.21442 13.3361C7.3268 13.382 7.4428 13.4062 7.56243 13.4062L17.4369 13.4062C17.9372 13.4062 18.3432 13.0002 18.3432 12.5C18.3432 11.9997 17.9372 11.5937 17.4369 11.5937ZM9.91904 16.1262L11.4705 17.6704C11.6482 17.8468 11.879 17.935 12.1097 17.935C12.343 17.935 12.575 17.8468 12.7538 17.668C13.1066 17.3127 13.1054 16.74 12.7502 16.3872L11.1987 14.8429C10.8434 14.4901 10.2707 14.4901 9.91662 14.8441C9.56379 15.1994 9.56499 15.7733 9.91904 16.1262Z" fill="#00D9B6"/>
</svg>
