<svg width="22" height="19" viewBox="0 0 22 19" fill="none" xmlns="http://www.w3.org/2000/svg">
<path d="M3.18119 14.5156L1.99536 15.6644L3.18119 16.8873H11.5215V14.5156L10.3357 13.3298H4.36701L3.18119 14.5156Z" fill="#FDBF00"/>
<path d="M0.809509 14.5156V16.2943C0.809509 16.6218 1.07498 16.8873 1.40242 16.8873H3.18116V14.5156L1.99534 13.3298L0.809509 14.5156Z" fill="#FFDA2D"/>
<path d="M3.18119 12.144L1.99536 13.2927L3.18119 14.5156H11.5215V12.144L10.3357 10.9581H4.36701L3.18119 12.144Z" fill="#FF9100"/>
<path d="M0.809509 12.144V14.5156H3.18116V12.144L1.99534 10.9581L0.809509 12.144Z" fill="#FDBF00"/>
<path d="M3.18119 9.77231L1.99536 10.9211L3.18119 12.144H11.5215V9.77231L10.3357 8.58649H4.36701L3.18119 9.77231Z" fill="#FDBF00"/>
<path d="M0.809509 9.77231V12.144H3.18116V9.77231L1.99534 8.58649L0.809509 9.77231Z" fill="#FFDA2D"/>
<path d="M3.18119 7.40067L1.99536 8.54946L3.18119 9.77232H11.5215V7.40067L10.3357 6.21484H4.36701L3.18119 7.40067Z" fill="#FF9100"/>
<path d="M0.809509 7.40067V9.77232H3.18116V7.40067L1.99534 6.21484L0.809509 7.40067Z" fill="#FDBF00"/>
<path d="M12.1144 2.65738H11.5215L7.07461 1.47156L4.36698 2.65738L3.18115 3.8076L4.36698 5.02904L8.23574 6.21486L11.5215 5.02904H12.1144C12.4464 5.02904 12.7073 4.76811 12.7073 4.43612V3.2503C12.7073 2.91823 12.4464 2.65738 12.1144 2.65738Z" fill="#FF641A"/>
<path d="M1.99536 2.65738V5.02904L3.18119 6.21486L4.36701 5.02904V2.65738L3.18119 1.47156L1.99536 2.65738Z" fill="#FF9100"/>
<path d="M3.18119 5.02899L1.99536 6.17778L3.18119 7.40064H11.5215V5.02899H3.18119Z" fill="#FDBF00"/>
<path d="M0.809509 5.6219V7.40064H3.18116V5.02899H1.40242C1.07498 5.02899 0.809509 5.29446 0.809509 5.6219Z" fill="#FFDA2D"/>
<path d="M3.18119 0.285706L1.99536 1.43449L3.18119 2.65736H11.5215V0.878619C11.5215 0.551172 11.256 0.285706 10.9286 0.285706H3.18119Z" fill="#FDBF00"/>
<path d="M0.809509 0.878619V2.06444C0.809509 2.39189 1.07498 2.65736 1.40242 2.65736H3.18116V0.285706H1.40242C1.07498 0.285706 0.809509 0.551172 0.809509 0.878619Z" fill="#FFDA2D"/>
<path d="M14.486 5.02899C10.8929 5.02899 7.96399 7.95794 7.96399 11.551C7.96399 15.144 10.8929 18.0731 14.486 18.0731C18.0791 18.0731 21.0476 15.144 21.0476 11.551C21.0476 7.95794 18.0791 5.02899 14.486 5.02899Z" fill="#FFDA2D"/>
<path d="M16.8577 9.77235C16.668 9.77235 16.4308 9.80788 16.1818 9.85536C16.2291 9.60629 16.2648 9.36913 16.2648 9.17943C16.2648 8.19516 15.4703 7.4007 14.486 7.4007C13.5017 7.4007 12.7073 8.19516 12.7073 9.17943C12.7073 9.36913 12.7429 9.60633 12.7903 9.85536C12.5412 9.80788 12.3041 9.77235 12.1144 9.77235C11.1301 9.77235 10.3356 10.5668 10.3356 11.5511C10.3356 12.5353 11.1301 13.3298 12.1144 13.3298C12.3041 13.3298 12.5413 13.2942 12.7903 13.2468C12.7429 13.4959 12.7073 13.733 12.7073 13.9227C12.7073 14.9069 13.5017 15.7015 14.486 15.7015C15.4703 15.7015 16.2648 14.9069 16.2648 13.9227C16.2648 13.733 16.2291 13.4958 16.1818 13.2468C16.4308 13.2942 16.668 13.3298 16.8577 13.3298C17.842 13.3298 18.6364 12.5353 18.6364 11.5511C18.6364 10.5668 17.842 9.77235 16.8577 9.77235Z" fill="#FDBF00"/>
<path d="M21.0476 11.551C21.0476 15.144 18.0791 18.0731 14.486 18.0731V5.02899C18.0791 5.02899 21.0476 7.95794 21.0476 11.551Z" fill="#FDBF00"/>
<path d="M18.6364 11.5511C18.6364 12.5353 17.842 13.3298 16.8577 13.3298C16.668 13.3298 16.4308 13.2942 16.1818 13.2468C16.2291 13.4959 16.2648 13.733 16.2648 13.9227C16.2648 14.9069 15.4703 15.7015 14.486 15.7015V7.4007C15.4703 7.4007 16.2648 8.19516 16.2648 9.17943C16.2648 9.36913 16.2291 9.60633 16.1818 9.85536C16.4308 9.80788 16.668 9.77235 16.8577 9.77235C17.842 9.77235 18.6364 10.5668 18.6364 11.5511Z" fill="#FF9100"/>
</svg>
