<?xml version="1.0" standalone="no"?>
<!DOCTYPE svg PUBLIC "-//W3C//DTD SVG 20010904//EN"
 "http://www.w3.org/TR/2001/REC-SVG-20010904/DTD/svg10.dtd">
<svg version="1.0" xmlns="http://www.w3.org/2000/svg"
 width="225.000000pt" height="225.000000pt" viewBox="0 0 225.000000 225.000000"
 preserveAspectRatio="xMidYMid meet" fill="#fff">

<g transform="translate(0.000000,225.000000) scale(0.100000,-0.100000)"
fill="#333" stroke="none">
<path d="M458 1494 c-233 -173 -431 -326 -442 -338 -11 -15 -16 -31 -12 -44
10 -30 870 -672 901 -672 48 0 55 29 55 217 l0 173 23 -4 c12 -3 165 -13 341
-22 l319 -18 19 24 c19 23 17 53 -6 77 -8 9 -122 19 -366 33 -195 11 -366 24
-381 29 -30 9 -228 162 -228 176 0 6 50 48 110 95 60 47 123 97 139 112 l30
27 0 203 c0 222 -6 248 -55 248 -16 0 -166 -106 -447 -316z m382 24 l-1 -113
-116 -90 c-169 -131 -203 -163 -203 -190 0 -25 47 -69 223 -209 l97 -78 0
-110 0 -110 -52 39 c-248 181 -615 460 -615 468 -1 8 652 503 665 505 1 0 2
-51 2 -112z"/>
<path d="M2125 1493 c-27 -2 -241 -14 -475 -28 -406 -23 -426 -26 -443 -46
-22 -27 -22 -41 2 -70 l18 -23 427 25 c373 21 426 22 421 9 -4 -8 -33 -61 -66
-117 -32 -56 -59 -109 -59 -118 0 -9 27 -62 59 -118 85 -145 87 -133 -22 -129
-103 4 -127 -6 -127 -52 0 -44 26 -54 155 -61 66 -3 135 -8 153 -11 25 -4 37
1 58 21 32 32 31 36 -58 187 -38 66 -74 130 -80 143 -9 20 0 41 70 164 44 77
83 150 87 161 7 22 -34 71 -57 68 -7 -1 -35 -3 -63 -5z"/>
</g>
</svg>
