<svg width="20" height="20" viewBox="0 0 20 20" fill="none" xmlns="http://www.w3.org/2000/svg">
<path d="M16.6857 8.04688L18.1612 4.35824C18.2334 4.1777 18.2114 3.97313 18.1024 3.81215C17.9934 3.65113 17.8116 3.55469 17.6172 3.55469H10.1953C9.87172 3.55469 9.60938 3.81703 9.60938 4.14062V9.41406H8.24219C7.91859 9.41406 7.65625 9.67641 7.65625 10V11.9531C7.65625 12.2767 7.91859 12.5391 8.24219 12.5391H17.6172C17.8116 12.5391 17.9934 12.4426 18.1024 12.2816C18.2114 12.1206 18.2334 11.9161 18.1612 11.7355L16.6857 8.04688Z" fill="#FC495C"/>
<path d="M8.24207 12.5391C8.1666 12.5391 8.09047 12.5245 8.01797 12.4945C7.79902 12.4038 7.65625 12.1901 7.65625 11.9531V10C7.65625 9.67641 7.91859 9.41406 8.24219 9.41406H10.1953C10.4323 9.41406 10.646 9.5568 10.7366 9.77578C10.8273 9.99473 10.7772 10.2468 10.6096 10.4143L8.65648 12.3675C8.54441 12.4796 8.39453 12.5391 8.24207 12.5391Z" fill="#D12657"/>
<path d="M10.1953 1.60156H2.38281C2.05922 1.60156 1.79688 1.86391 1.79688 2.1875V10C1.79688 10.3236 2.05922 10.5859 2.38281 10.5859H10.1953C10.5189 10.5859 10.7812 10.3236 10.7812 10V2.1875C10.7812 1.86391 10.5189 1.60156 10.1953 1.60156Z" fill="#FD6B82"/>
<path d="M2.38281 20C2.05922 20 1.79688 19.7377 1.79688 19.4141V0.585938C1.79688 0.262344 2.05922 0 2.38281 0C2.70641 0 2.96875 0.262344 2.96875 0.585938V19.4141C2.96875 19.7377 2.70641 20 2.38281 20Z" fill="#A4B0BE"/>
</svg>
