<svg width="20" height="20" viewBox="0 0 20 20" fill="none" xmlns="http://www.w3.org/2000/svg">
<g id="Iconly/Light-Outline/More Square">
<g id="Group 2296">
<g id="More Square">
<path id="Fill 1" fill-rule="evenodd" clip-rule="evenodd" d="M6.72083 4.25C4.6125 4.25 3.25 5.69417 3.25 7.93V14.7367C3.25 16.9725 4.6125 18.4167 6.72083 18.4167H13.9442C16.0533 18.4167 17.4167 16.9725 17.4167 14.7367V7.93C17.4167 5.69417 16.0533 4.25 13.945 4.25H6.72083ZM13.9442 19.6667H6.72083C3.89667 19.6667 2 17.685 2 14.7367V7.93C2 4.98167 3.89667 3 6.72083 3H13.945C16.7692 3 18.6667 4.98167 18.6667 7.93V14.7367C18.6667 17.685 16.7692 19.6667 13.9442 19.6667V19.6667Z" fill="#333"/>
</g>
<path id="?" d="M10.717 13.66C10.483 13.66 10.366 13.5213 10.366 13.244C10.366 12.7933 10.4483 12.3773 10.613 11.996C10.7777 11.606 11.068 11.1683 11.484 10.683C11.8133 10.3017 12.043 9.97667 12.173 9.708C12.303 9.43933 12.368 9.15333 12.368 8.85C12.368 8.486 12.238 8.2 11.978 7.992C11.718 7.77533 11.3583 7.667 10.899 7.667C10.5003 7.667 10.132 7.72767 9.794 7.849C9.46467 7.97033 9.144 8.14367 8.832 8.369C8.66733 8.48167 8.52 8.525 8.39 8.499C8.26867 8.473 8.17767 8.41233 8.117 8.317C8.05633 8.213 8.04333 8.096 8.078 7.966C8.11267 7.82733 8.208 7.70167 8.364 7.589C8.702 7.32033 9.10067 7.108 9.56 6.952C10.0193 6.796 10.483 6.718 10.951 6.718C11.6963 6.718 12.2987 6.90867 12.758 7.29C13.2173 7.66267 13.447 8.15667 13.447 8.772C13.447 9.17933 13.356 9.56067 13.174 9.916C13.0007 10.2713 12.693 10.683 12.251 11.151C11.8437 11.5843 11.5533 11.9613 11.38 12.282C11.2153 12.6027 11.1113 12.945 11.068 13.309C11.0507 13.543 10.9337 13.66 10.717 13.66ZM10.704 16.052C10.4873 16.052 10.3097 15.987 10.171 15.857C10.041 15.7183 9.976 15.545 9.976 15.337C9.976 15.129 10.041 14.96 10.171 14.83C10.3097 14.6913 10.4873 14.622 10.704 14.622C10.9207 14.622 11.0897 14.6913 11.211 14.83C11.341 14.96 11.406 15.129 11.406 15.337C11.406 15.545 11.341 15.7183 11.211 15.857C11.0897 15.987 10.9207 16.052 10.704 16.052Z" fill="#333"/>
</g>
</g>
</svg>
