<svg width="24" height="24" viewBox="0 0 24 24" fill="none" xmlns="http://www.w3.org/2000/svg">
<path fill-rule="evenodd" clip-rule="evenodd" d="M0.333374 12.0069C0.333374 5.56746 5.56986 0.333496 12 0.333496C18.4302 0.333496 23.6667 5.56746 23.6667 12.0069C23.6667 18.4329 18.4302 23.6668 12 23.6668C5.56986 23.6668 0.333374 18.4329 0.333374 12.0069ZM16.2793 13.1876C16.4032 13.0638 16.5608 12.8725 16.5946 12.8274C16.7748 12.5911 16.8649 12.2984 16.8649 12.0069C16.8649 11.6793 16.7635 11.3754 16.5721 11.1278C16.5564 11.1121 16.5257 11.0787 16.4857 11.0351C16.4108 10.9536 16.3032 10.8366 16.2005 10.7339C15.2771 9.74334 12.8672 8.12251 11.6059 7.62725C11.4145 7.54958 10.9302 7.37962 10.6712 7.36837C10.4235 7.36837 10.187 7.42464 9.96175 7.5372C9.68022 7.69478 9.45499 7.94241 9.33112 8.23506C9.25229 8.43767 9.12842 9.04548 9.12842 9.05674C9.00454 9.72083 8.93697 10.8014 8.93697 11.9945C8.93697 13.1325 9.00454 14.1669 9.10589 14.8422C9.10868 14.845 9.11837 14.8933 9.13342 14.9684C9.17917 15.1965 9.27448 15.6717 9.37616 15.8665C9.62391 16.3393 10.1081 16.6319 10.6262 16.6319H10.6712C11.009 16.6207 11.7185 16.328 11.7185 16.3167C12.9122 15.8215 15.2658 14.2794 16.2117 13.2552L16.2793 13.1876Z" fill="#84bb29"/>
</svg>
