<svg width="41" height="41" viewBox="0 0 41 41" fill="none" xmlns="http://www.w3.org/2000/svg">
<g clip-path="url(#clip0)">
<path d="M4.27081 17.9375C1.91675 17.9375 0 19.8543 0 22.2083V35.875C0 38.2291 1.91675 40.1458 4.27081 40.1458H9.39581C10.3576 40.1458 11.2425 39.8212 11.9583 39.2814V17.9375H4.27081Z" fill="#84BB29"/>
<path d="M41.0003 24.344C41.0003 23.3174 40.5937 22.3607 39.8882 21.6551C40.686 20.7822 41.0925 19.6119 40.9815 18.3939C40.7816 16.2226 38.8255 14.5211 36.5262 14.5211H25.9738C26.4965 12.934 27.3336 10.0248 27.3336 7.6878C27.3336 3.98242 24.1852 0.854492 22.2086 0.854492C20.4337 0.854492 19.166 1.85387 19.1114 1.89487C18.9099 2.05719 18.792 2.30319 18.792 2.5628V8.35573L13.872 19.014L13.667 19.1182V37.4282C15.0575 38.0842 16.8171 38.4378 17.9378 38.4378H33.6186C35.479 38.4378 37.1071 37.1839 37.4897 35.4534C37.6861 34.5633 37.5717 33.6664 37.1805 32.8874C38.4429 32.2519 39.292 30.9519 39.292 29.469C39.292 28.8643 39.1536 28.2852 38.8906 27.7607C40.153 27.1252 41.0003 25.8252 41.0003 24.344Z" fill="#00D9B6"/>
</g>
<defs>
<clipPath id="clip0">
<rect width="41" height="41" fill="white"/>
</clipPath>
</defs>
</svg>
