<svg width="23" height="23" viewBox="0 0 23 23" fill="none" xmlns="http://www.w3.org/2000/svg">
<path d="M17.7891 8.625H15.3184V6.60352C15.3184 4.49807 13.6054 2.78516 11.5 2.78516C9.39456 2.78516 7.68164 4.49807 7.68164 6.60352V8.625H5.21094C4.8388 8.625 4.53711 8.9267 4.53711 9.29883V11.9941C4.53711 15.6062 7.30183 18.5843 10.8262 18.9243V21.6523H9.1416C8.76947 21.6523 8.46777 21.954 8.46777 22.3262C8.46777 22.6983 8.76947 23 9.1416 23H13.8584C14.2305 23 14.5322 22.6983 14.5322 22.3262C14.5322 21.954 14.2305 21.6523 13.8584 21.6523H12.1738V18.9243C15.6982 18.5843 18.4629 15.6062 18.4629 11.9941V9.29883C18.4629 8.9267 18.1612 8.625 17.7891 8.625ZM9.0293 6.60352C9.0293 5.24117 10.1377 4.13281 11.5 4.13281C12.8623 4.13281 13.9707 5.24117 13.9707 6.60352V11.9941C13.9707 13.3565 12.8623 14.4648 11.5 14.4648C10.1377 14.4648 9.0293 13.3565 9.0293 11.9941V6.60352ZM17.1152 11.9941C17.1152 15.0904 14.5962 17.6094 11.5 17.6094C8.40376 17.6094 5.88477 15.0904 5.88477 11.9941V9.97266H7.68164V11.9941C7.68164 14.0996 9.39456 15.8125 11.5 15.8125C13.6054 15.8125 15.3184 14.0996 15.3184 11.9941V9.97266H17.1152V11.9941Z" fill="currentColor"/>
<path d="M16.9355 5.15967C17.3077 5.15967 17.6094 4.85799 17.6094 4.48584C17.6094 4.1137 17.3077 3.81201 16.9355 3.81201C16.5634 3.81201 16.2617 4.1137 16.2617 4.48584C16.2617 4.85799 16.5634 5.15967 16.9355 5.15967Z" fill="currentColor"/>
<path d="M19.3179 2.10311C19.0548 1.84 18.6282 1.83996 18.365 2.10311C18.1018 2.36626 18.1018 2.79288 18.365 3.05604C19.1531 3.84419 19.1531 5.12671 18.365 5.91486C18.1018 6.17802 18.1018 6.60464 18.365 6.86779C18.4965 6.99937 18.669 7.06513 18.8414 7.06513C19.0138 7.06513 19.1863 6.99932 19.3178 6.86775C20.6315 5.55414 20.6315 3.41676 19.3179 2.10311Z" fill="currentColor"/>
<path d="M21.224 0.197364C20.9609 -0.0657881 20.5342 -0.0657881 20.271 0.197364C20.0079 0.460517 20.0079 0.88714 20.271 1.15029C21.1619 2.04118 21.6526 3.22564 21.6526 4.48556C21.6526 5.74549 21.1619 6.92999 20.271 7.82088C20.0079 8.08398 20.0079 8.51065 20.271 8.7738C20.4026 8.90538 20.5751 8.97119 20.7475 8.97119C20.9199 8.97119 21.0924 8.90538 21.2239 8.7738C22.3694 7.62834 23.0002 6.10544 23.0002 4.48556C23.0002 2.86568 22.3694 1.34278 21.224 0.197364Z" fill="currentColor"/>
<path d="M6.06445 5.15967C6.4366 5.15967 6.73828 4.85799 6.73828 4.48584C6.73828 4.1137 6.4366 3.81201 6.06445 3.81201C5.69231 3.81201 5.39062 4.1137 5.39062 4.48584C5.39062 4.85799 5.69231 5.15967 6.06445 5.15967Z" fill="currentColor"/>
<path d="M4.63463 5.91485C3.84648 5.12669 3.84648 3.84417 4.63463 3.05602C4.89778 2.79287 4.89778 2.36624 4.63463 2.10309C4.37152 1.83998 3.94486 1.83998 3.6817 2.10309C2.36814 3.41674 2.36814 5.55413 3.6817 6.86778C3.81328 6.99935 3.98573 7.06516 4.15814 7.06516C4.33055 7.06516 4.50305 6.99935 4.63459 6.86782C4.89778 6.60467 4.89778 6.178 4.63463 5.91485Z" fill="currentColor"/>
<path d="M1.34766 4.4875C1.34766 3.22762 1.83829 2.04312 2.72918 1.15223C2.99234 0.88912 2.99234 0.462453 2.72918 0.1993C2.46612 -0.0638068 2.03945 -0.0638518 1.77626 0.1993C0.630838 1.34472 0 2.86761 0 4.4875C0 6.10738 0.630838 7.63027 1.77626 8.77569C1.90783 8.90727 2.08029 8.97308 2.2527 8.97308C2.42511 8.97308 2.59761 8.90731 2.72914 8.77569C2.99229 8.51254 2.99229 8.08592 2.72914 7.82276C1.83829 6.93187 1.34766 5.74742 1.34766 4.4875Z" fill="currentColor"/>
</svg>
