<svg width="15" height="22" viewBox="0 0 15 22" fill="none" xmlns="http://www.w3.org/2000/svg">
<path d="M5.92555 0.462402C4.51913 1.1122 3.50467 2.57589 3.484 4.2241C3.46845 5.56398 3.45769 6.90396 3.45178 8.24383C6.15078 8.21583 8.84978 8.21583 11.5488 8.24383C11.5452 7.43985 11.5399 6.63596 11.5329 5.83197C9.6389 4.02772 7.75807 2.20854 5.92555 0.462402Z" fill="white"/>
<path d="M7.50012 0.114746C6.94129 0.114693 6.40973 0.239727 5.92542 0.462213C6.06421 3.43227 8.51842 5.77051 11.5328 5.83179C11.5281 5.29585 11.5226 4.75986 11.5164 4.22386C11.4841 2.01287 9.6762 0.117699 7.50012 0.114746Z" fill="white"/>
<path d="M6.6969 17.2474C6.69875 18.058 6.70096 18.8685 6.70354 19.679C7.36736 19.684 8.03124 19.6828 8.69506 19.6752C8.69891 18.865 8.70223 18.0548 8.70502 17.2446C8.03567 17.2502 7.36626 17.2511 6.6969 17.2474Z" fill="white"/>
<path d="M6.29541 17.2446C6.29821 18.0548 6.30153 18.865 6.30538 19.6752C6.5709 19.6782 6.83647 19.6802 7.10198 19.6812C7.10072 18.8705 7.09961 18.0598 7.09866 17.2491C6.83093 17.2483 6.56314 17.2468 6.29541 17.2446Z" fill="currentColor"/>
<path d="M6.29541 17.2446C6.29821 18.0548 6.30153 18.865 6.30538 19.6752C7.10199 19.6842 7.89859 19.6842 8.6952 19.6752C8.69905 18.865 8.70237 18.0548 8.70517 17.2446C7.90192 17.2512 7.09866 17.2512 6.29541 17.2446Z" fill="white"/>
<path d="M7.09717 15.8302C7.09785 16.5735 7.09864 17.3166 7.09959 18.0599C7.63379 18.0615 8.16794 18.0599 8.70213 18.0549C8.92335 18.0528 9.10365 17.8692 9.10481 17.6457C9.10777 17.0384 9.1104 16.431 9.11257 15.8237C8.44078 15.8295 7.769 15.8317 7.09717 15.8302Z" fill="white"/>
<path d="M0.610846 9.46998C0.612375 9.07447 0.614696 8.67896 0.617701 8.28345C0.621129 7.84713 0.987 7.48437 1.43361 7.47461C1.4326 7.47345 1.82806 8.86095 1.82901 8.86195C1.69179 9.32854 1.55526 9.79413 1.41953 10.2585C0.971759 10.2593 0.609106 9.90635 0.610846 9.46998Z" fill="white"/>
<path d="M14.3893 9.46998C14.3878 9.07447 14.3855 8.67896 14.3824 8.28345C14.379 7.84713 14.0132 7.48437 13.5665 7.47461C13.5675 7.47345 13.1721 8.86095 13.1711 8.86195C13.3084 9.32854 13.4449 9.79413 13.5806 10.2585C14.0284 10.2593 14.391 9.90635 14.3893 9.46998Z" fill="white"/>
<path d="M13.1588 7.06797C12.9356 7.06302 12.7562 7.23841 12.7579 7.45916C12.765 8.39161 12.7691 9.324 12.7701 10.2565C12.7701 13.1034 10.3847 15.5113 7.5002 15.52C4.61579 15.5112 2.2303 13.1035 2.2303 10.2565C2.2313 9.324 2.23536 8.39161 2.24253 7.45916C2.24422 7.23836 2.06482 7.06307 1.84159 7.06797C1.61842 7.07293 1.43564 7.25523 1.43364 7.47471C1.42541 8.40268 1.42072 9.33065 1.41956 10.2586C1.41697 12.9818 3.33809 15.3586 5.8889 16.1036C5.89086 16.6177 5.89312 17.1317 5.8956 17.6458C5.89676 17.8693 6.07706 18.0529 6.29828 18.055C6.56538 18.0575 6.83248 18.0591 7.09953 18.0599C7.32075 18.0606 7.5001 17.8791 7.50015 17.6551C7.50015 17.2137 7.50015 16.7723 7.50015 16.3309C10.8194 16.3175 13.5801 13.521 13.5808 10.2587C13.5796 9.3307 13.5749 8.40273 13.5667 7.47477C13.5648 7.25523 13.382 7.07293 13.1588 7.06797Z" fill="white"/>
<path d="M7.50025 0.114746C5.32417 0.117805 3.51628 2.01276 3.484 4.22391C3.46845 5.56379 3.45769 6.90377 3.45178 8.24364C6.15078 8.21564 8.84978 8.21564 11.5488 8.24364C11.5429 6.90372 11.5321 5.56379 11.5166 4.22386C11.4842 2.01287 9.67634 0.117699 7.50025 0.114746Z" fill="currentColor"/>
<path d="M5.07362 7.42188C4.53436 7.4263 3.9951 7.43226 3.45589 7.4397C3.23256 7.44286 3.05031 7.62522 3.04905 7.84681C3.04451 8.64932 3.04188 9.45183 3.04114 10.2543C3.04072 12.6815 5.05016 14.7037 7.5003 14.709C6.69225 12.2766 5.87402 9.84017 5.07362 7.42188Z" fill="white"/>
<path d="M7.5 14.709C7.50671 14.709 7.51325 14.7086 7.51996 14.7085C7.51325 14.7085 7.50671 14.7089 7.5 14.709Z" fill="white"/>
<path d="M11.5444 7.43965C11.0052 7.43221 10.4659 7.4263 9.92671 7.42188C9.17487 9.83937 8.40569 12.2736 7.64563 14.7052C10.0287 14.6212 11.9598 12.6334 11.9592 10.2543C11.9585 9.45178 11.9559 8.64927 11.9513 7.84676C11.9501 7.62522 11.7678 7.44281 11.5444 7.43965Z" fill="white"/>
<path d="M9.92689 7.42163C8.30916 7.40829 6.69137 7.40829 5.07364 7.42163C4.85031 7.42342 4.66848 7.60609 4.66764 7.82895C4.66284 9.17468 4.66136 10.5204 4.66331 11.8661C4.66653 13.424 5.94001 14.7075 7.50026 14.7087C9.06046 14.7074 10.3339 13.4241 10.3372 11.8661C10.3392 10.5204 10.3377 9.17468 10.3329 7.82895C10.332 7.60604 10.1502 7.42363 9.92689 7.42163Z" fill="white"/>
<path d="M9.12147 11.0601C9.1211 11.954 8.39448 12.6818 7.49995 12.6821C6.60541 12.6819 5.87879 11.9539 5.87842 11.0601C5.87826 10.1663 6.60489 9.43928 7.49995 9.43896C8.39506 9.43923 9.12163 10.1663 9.12147 11.0601Z" fill="currentColor"/>
<path d="M7.90526 11.8711C7.0101 11.8714 6.28368 11.1445 6.28384 10.2499C6.28384 10.1507 6.29328 10.0538 6.31042 9.95947C6.04242 10.2488 5.87831 10.6352 5.87842 11.0599C5.87879 11.9537 6.60541 12.6818 7.49995 12.682C8.29539 12.6819 8.95742 12.1059 9.0949 11.3502C8.79864 11.6699 8.37534 11.8708 7.90526 11.8711Z" fill="#E5E5E5"/>
<path d="M7.10568 18.8703C6.68165 18.8688 6.25766 18.8651 5.83363 18.859C5.62169 18.8559 5.41898 18.9375 5.27053 19.0863C5.1292 19.2278 4.98814 19.369 4.84739 19.5096C4.25555 20.1012 3.45425 20.4111 2.61219 20.3673C2.56547 20.3649 2.5188 20.3625 2.47207 20.3601C2.25275 20.3486 2.07931 20.517 2.08485 20.7373C2.09044 20.9576 2.27216 21.1473 2.49048 21.1599C4.82123 21.2933 7.15193 21.3337 9.48269 21.2809C8.69926 20.4897 7.90588 19.6838 7.10568 18.8703Z" fill="white"/>
<path d="M12.5284 20.36C12.4816 20.3625 12.435 20.3649 12.3883 20.3673C11.5462 20.411 10.7449 20.1011 10.1531 19.5096C10.0123 19.369 9.87119 19.2278 9.72991 19.0863C9.58147 18.9375 9.37876 18.856 9.16682 18.859C8.47974 18.8688 7.79267 18.8726 7.10559 18.8703C7.11007 20.2137 8.17378 21.3114 9.48259 21.2809C10.4917 21.258 11.5008 21.2177 12.5099 21.1599C12.7283 21.1473 12.91 20.9577 12.9155 20.7374C12.9211 20.5171 12.7476 20.3485 12.5284 20.36Z" fill="white"/>
</svg>
