<svg width="26" height="30" viewBox="0 0 4 15" fill="none" xmlns="http://www.w3.org/2000/svg">
<path d="M3.20083 0.549174C3.93306 1.28141 3.93306 2.46859 3.20083 3.20083C2.46859 3.93306 1.28141 3.93306 0.549174 3.20083C-0.183058 2.46859 -0.183058 1.28141 0.549174 0.549174C1.28138 -0.183058 2.46857 -0.183058 3.20083 0.549174Z" fill="white"/>
<path d="M3.20083 6.17417C3.93306 6.90641 3.93306 8.09359 3.20083 8.82583C2.46859 9.55806 1.28141 9.55806 0.549174 8.82583C-0.183058 8.09359 -0.183058 6.90641 0.549174 6.17417C1.28138 5.44194 2.46857 5.44194 3.20083 6.17417Z" fill="white"/>
<path d="M3.20083 11.7992C3.93306 12.5314 3.93306 13.7186 3.20083 14.4508C2.46859 15.1831 1.28141 15.1831 0.549174 14.4508C-0.183058 13.7186 -0.183058 12.5314 0.549174 11.7992C1.28138 11.0669 2.46857 11.0669 3.20083 11.7992Z" fill="white"/>
</svg>
