<svg width="22" height="25" viewBox="0 0 22 25" fill="none" xmlns="http://www.w3.org/2000/svg">
<path d="M5.64062 5.85938H14.2344C14.338 5.85938 14.4373 5.81822 14.5106 5.74496C14.5838 5.67171 14.625 5.57235 14.625 5.46875C14.625 5.36515 14.5838 5.26579 14.5106 5.19254C14.4373 5.11928 14.338 5.07812 14.2344 5.07812H5.64062C5.53702 5.07812 5.43767 5.11928 5.36441 5.19254C5.29115 5.26579 5.25 5.36515 5.25 5.46875C5.25 5.57235 5.29115 5.67171 5.36441 5.74496C5.43767 5.81822 5.53702 5.85938 5.64062 5.85938Z" fill="#333"/>
<path d="M5.64062 8.20312H14.2344C14.338 8.20312 14.4373 8.16197 14.5106 8.08871C14.5838 8.01546 14.625 7.9161 14.625 7.8125C14.625 7.7089 14.5838 7.60954 14.5106 7.53629C14.4373 7.46303 14.338 7.42188 14.2344 7.42188H5.64062C5.53702 7.42188 5.43767 7.46303 5.36441 7.53629C5.29115 7.60954 5.25 7.7089 5.25 7.8125C5.25 7.9161 5.29115 8.01546 5.36441 8.08871C5.43767 8.16197 5.53702 8.20312 5.64062 8.20312Z" fill="#333"/>
<path d="M5.64062 10.5469H14.2344C14.338 10.5469 14.4373 10.5057 14.5106 10.4325C14.5838 10.3592 14.625 10.2599 14.625 10.1562C14.625 10.0526 14.5838 9.95329 14.5106 9.88004C14.4373 9.80678 14.338 9.76562 14.2344 9.76562H5.64062C5.53702 9.76562 5.43767 9.80678 5.36441 9.88004C5.29115 9.95329 5.25 10.0526 5.25 10.1562C5.25 10.2599 5.29115 10.3592 5.36441 10.4325C5.43767 10.5057 5.53702 10.5469 5.64062 10.5469Z" fill="#333"/>
<path d="M5.64062 12.8906H14.2344C14.338 12.8906 14.4373 12.8495 14.5106 12.7762C14.5838 12.703 14.625 12.6036 14.625 12.5C14.625 12.3964 14.5838 12.297 14.5106 12.2238C14.4373 12.1505 14.338 12.1094 14.2344 12.1094H5.64062C5.53702 12.1094 5.43767 12.1505 5.36441 12.2238C5.29115 12.297 5.25 12.3964 5.25 12.5C5.25 12.6036 5.29115 12.703 5.36441 12.7762C5.43767 12.8495 5.53702 12.8906 5.64062 12.8906Z" fill="#333"/>
<path d="M5.64062 15.2344H8.76562C8.86923 15.2344 8.96858 15.1932 9.04184 15.12C9.1151 15.0467 9.15625 14.9474 9.15625 14.8438C9.15625 14.7401 9.1151 14.6408 9.04184 14.5675C8.96858 14.4943 8.86923 14.4531 8.76562 14.4531H5.64062C5.53702 14.4531 5.43767 14.4943 5.36441 14.5675C5.29115 14.6408 5.25 14.7401 5.25 14.8438C5.25 14.9474 5.29115 15.0467 5.36441 15.12C5.43767 15.1932 5.53702 15.2344 5.64062 15.2344Z" fill="#333"/>
<path d="M21.0767 10.0105C20.8085 9.85367 20.489 9.80965 20.1884 9.88811C19.8878 9.96657 19.6305 10.1611 19.4732 10.429L18.5312 12.0361V2.34375C18.5312 2.24015 18.4901 2.14079 18.4168 2.06754C18.3436 1.99428 18.2442 1.95312 18.1406 1.95312H15.1774C15.1774 1.95312 14.0037 0.757812 13.9567 0.798047C13.9201 0.786925 13.882 0.781265 13.8437 0.78125H2.51561C2.41201 0.78125 2.31265 0.822405 2.23939 0.895661C2.16614 0.968918 2.12498 1.06827 2.12498 1.17187V2.39321C1.78945 2.47971 1.49218 2.67528 1.27994 2.94918C1.06769 3.22307 0.952515 3.55975 0.952515 3.90625C0.952515 4.25275 1.06769 4.58943 1.27994 4.86332C1.49218 5.13722 1.78945 5.33279 2.12498 5.41929V6.29946C1.78945 6.38596 1.49218 6.58153 1.27994 6.85543C1.06769 7.12932 0.952515 7.46599 0.952515 7.8125C0.952515 8.159 1.06769 8.49568 1.27994 8.76957C1.49218 9.04347 1.78945 9.23904 2.12498 9.32554V10.2057C1.78945 10.2922 1.49218 10.4878 1.27994 10.7617C1.06769 11.0356 0.952515 11.3722 0.952515 11.7187C0.952515 12.0653 1.06769 12.4019 1.27994 12.6758C1.49218 12.9497 1.78945 13.1453 2.12498 13.2318V13.7213C1.78945 13.8078 1.49218 14.0034 1.27994 14.2773C1.06769 14.5512 0.952515 14.8879 0.952515 15.2344C0.952515 15.5809 1.06769 15.9176 1.27994 16.1914C1.49218 16.4653 1.78945 16.6609 2.12498 16.7474V19.1406C2.12498 19.2442 2.16614 19.3436 2.23939 19.4168C2.31265 19.4901 2.41201 19.5312 2.51561 19.5312H2.90623V20.7031C2.90623 20.8067 2.94739 20.9061 3.02064 20.9793C3.0939 21.0526 3.19326 21.0937 3.29686 21.0937H13.2232L12.9556 21.5505C12.9316 21.5915 12.9153 21.6365 12.9076 21.6833C12.9073 21.6856 12.9066 21.6875 12.9063 21.6898L12.9053 21.6962V21.6977L12.5928 23.7699C12.5812 23.8471 12.5929 23.926 12.6266 23.9965C12.6602 24.0669 12.7142 24.1257 12.7816 24.1651C12.8489 24.2046 12.9266 24.223 13.0045 24.2179C13.0824 24.2129 13.157 24.1845 13.2186 24.1367L14.8802 22.8467C14.9866 22.764 15.0386 22.7134 15.0304 22.6456L15.9397 21.0937H18.1406C18.2442 21.0937 18.3436 21.0526 18.4168 20.9793C18.4901 20.9061 18.5312 20.8067 18.5312 20.7031V16.6718L21.4951 11.614C21.6519 11.3458 21.6959 11.0264 21.6175 10.7258C21.539 10.4251 21.3446 10.1679 21.0767 10.0105ZM20.3856 10.6436C20.4603 10.624 20.5392 10.6271 20.6122 10.6525C20.6852 10.6778 20.749 10.7242 20.7957 10.7858C20.8423 10.8474 20.8696 10.9214 20.8742 10.9985C20.8787 11.0756 20.8603 11.1524 20.8212 11.219L20.6237 11.556L19.9499 11.1609L20.1474 10.824C20.1732 10.7797 20.2076 10.7409 20.2484 10.7099C20.2893 10.679 20.3359 10.6564 20.3856 10.6436ZM14.5011 22.0035L13.8272 21.6085L18.9622 12.8461L19.636 13.2412L14.5011 22.0035ZM14.2344 2.11494L15.635 3.51562H14.2344V2.11494ZM19.3572 12.1721L19.5547 11.8352L20.2287 12.2302L20.0312 12.5671L19.3572 12.1721ZM17.75 2.73437V13.2812C17.75 13.3066 17.7525 13.3319 17.7574 13.3567L16.9687 14.7025V3.90625C16.9688 3.85503 16.9587 3.80431 16.9392 3.75698C16.9196 3.70965 16.8909 3.66664 16.8547 3.63042L16.8543 3.63003L15.9587 2.73437H17.75ZM2.90623 1.5625H13.4531V3.90625C13.4531 4.00985 13.4943 4.10921 13.5675 4.18246C13.6408 4.25572 13.7401 4.29687 13.8437 4.29687H16.1875V16.0356L14.5968 18.75H2.90623V16.7475C3.17666 16.6778 3.42347 16.5369 3.62092 16.3394C3.81836 16.142 3.95923 15.8951 4.02884 15.6247C4.05466 15.5243 4.03956 15.4178 3.98685 15.3286C3.93414 15.2394 3.84815 15.1747 3.74779 15.1489C3.69809 15.1361 3.64636 15.1333 3.59556 15.1405C3.54476 15.1477 3.49587 15.1648 3.45169 15.1909C3.36246 15.2436 3.29783 15.3296 3.272 15.43C3.24612 15.5304 3.20043 15.6247 3.13762 15.7072C3.07481 15.7898 2.99614 15.8589 2.90623 15.9106V13.2318C3.17666 13.1622 3.42347 13.0213 3.62092 12.8238C3.81836 12.6263 3.95923 12.3795 4.02884 12.1091C4.05466 12.0087 4.03956 11.9022 3.98685 11.813C3.93414 11.7238 3.84815 11.6591 3.74779 11.6333C3.64742 11.6075 3.54091 11.6226 3.45169 11.6753C3.36246 11.728 3.29783 11.814 3.272 11.9144C3.24612 12.0148 3.20043 12.1091 3.13762 12.1916C3.07481 12.2741 2.99614 12.3433 2.90623 12.395V9.32559C3.17666 9.25594 3.42347 9.11504 3.62092 8.91757C3.81836 8.72009 3.95923 8.47327 4.02884 8.20283C4.05466 8.10247 4.03956 7.99596 3.98685 7.90673C3.93414 7.81751 3.84815 7.75287 3.74779 7.72705C3.64742 7.70123 3.54091 7.71633 3.45169 7.76904C3.36246 7.82175 3.29783 7.90774 3.272 8.0081C3.24612 8.10855 3.20043 8.2028 3.13762 8.28535C3.07481 8.36789 2.99614 8.43705 2.90623 8.48877V5.41934C3.17666 5.34969 3.42347 5.20879 3.62092 5.01132C3.81836 4.81384 3.95923 4.56702 4.02884 4.29658C4.05466 4.19622 4.03956 4.08971 3.98685 4.00048C3.93414 3.91126 3.84815 3.84662 3.74779 3.8208C3.64742 3.79498 3.54091 3.81008 3.45169 3.86279C3.36246 3.9155 3.29783 4.00149 3.272 4.10186C3.24612 4.2023 3.20043 4.29655 3.13762 4.3791C3.07481 4.46164 2.99614 4.5308 2.90623 4.58252V1.5625ZM1.73436 3.90625C1.73454 3.76929 1.77073 3.63478 1.83929 3.51622C1.90785 3.39765 2.00637 3.29919 2.12498 3.23071V4.58179C2.00637 4.51331 1.90785 4.41485 1.83929 4.29628C1.77073 4.17772 1.73454 4.04321 1.73436 3.90625ZM1.73436 7.8125C1.73454 7.67554 1.77073 7.54103 1.83929 7.42247C1.90785 7.3039 2.00637 7.20544 2.12498 7.13696V8.48804C2.00637 8.41956 1.90785 8.3211 1.83929 8.20253C1.77073 8.08397 1.73454 7.94946 1.73436 7.8125ZM1.73436 11.7187C1.73454 11.5818 1.77073 11.4473 1.83929 11.3287C1.90785 11.2102 2.00637 11.1117 2.12498 11.0432V12.3943C2.00637 12.3258 1.90785 12.2273 1.83929 12.1088C1.77073 11.9902 1.73454 11.8557 1.73436 11.7187ZM1.73436 15.2344C1.73454 15.0974 1.77073 14.9629 1.83929 14.8443C1.90785 14.7258 2.00637 14.6273 2.12498 14.5588V15.9099C2.00637 15.8414 1.90785 15.743 1.83929 15.6244C1.77073 15.5058 1.73454 15.3713 1.73436 15.2344ZM3.68748 20.3125V19.5312H14.1389L13.681 20.3125H3.68748ZM13.5928 22.3768L13.9453 22.5833L13.5107 22.9207L13.5928 22.3768ZM17.75 20.3125H16.3974L17.75 18.0048V20.3125Z" fill="#333"/>
</svg>
