<svg id="svg" version="1.1" xmlns="http://www.w3.org/2000/svg" xmlns:xlink="http://www.w3.org/1999/xlink" width="400" height="400" viewBox="0, 0, 400,400"><g id="svgg"><path id="path0" d="M252.800 35.589 L 228.600 35.800 228.699 37.800 C 228.847 40.777,229.552 41.200,234.371 41.200 C 246.545 41.200,254.948 48.341,253.472 57.434 C 253.350 58.185,253.284 58.840,253.325 58.888 C 253.366 58.937,266.450 59.072,282.400 59.188 L 311.400 59.400 311.400 75.800 L 311.400 92.200 310.329 92.324 C 309.740 92.392,308.390 92.103,307.329 91.682 C 296.407 87.352,278.965 85.737,267.600 88.004 C 263.399 88.843,259.340 89.880,258.526 90.324 C 258.046 90.586,257.326 90.806,256.926 90.814 C 256.527 90.821,255.480 91.175,254.600 91.600 C 253.720 92.025,252.805 92.379,252.566 92.386 C 250.799 92.442,237.452 100.183,233.687 103.336 C 231.922 104.815,223.915 112.802,222.195 114.800 C 220.059 117.281,214.004 126.569,214.001 127.369 C 214.001 127.571,213.764 128.021,213.474 128.369 C 213.185 128.716,212.432 130.350,211.799 132.000 C 211.167 133.650,210.501 135.201,210.321 135.446 C 208.186 138.342,205.201 153.951,205.204 162.200 C 205.206 166.631,206.471 178.343,207.048 179.278 C 207.269 179.635,207.934 181.975,209.210 186.879 C 210.431 191.573,216.439 202.737,220.899 208.600 C 221.735 209.700,222.821 211.129,223.310 211.776 C 223.800 212.422,225.022 213.772,226.027 214.776 C 227.648 216.395,229.007 217.618,233.400 221.412 C 234.060 221.982,235.528 223.074,236.663 223.838 C 237.797 224.603,238.944 225.492,239.212 225.814 C 239.479 226.136,239.933 226.400,240.220 226.400 C 240.508 226.400,240.981 226.636,241.271 226.923 C 242.306 227.948,251.032 232.211,254.800 233.533 C 256.010 233.957,257.630 234.526,258.400 234.797 C 270.564 239.078,289.132 239.306,301.600 235.329 C 302.590 235.013,304.042 234.591,304.826 234.392 C 305.611 234.192,306.781 233.754,307.426 233.417 C 308.072 233.080,309.140 232.803,309.800 232.801 C 310.827 232.798,320.214 228.406,320.800 227.654 C 320.910 227.513,321.810 226.860,322.800 226.203 C 323.790 225.546,325.758 224.135,327.173 223.067 C 328.588 221.999,330.163 220.966,330.673 220.772 C 331.183 220.578,331.600 220.212,331.600 219.957 C 331.600 219.702,332.837 218.213,334.348 216.647 C 338.575 212.269,340.786 209.827,340.793 209.529 C 340.797 209.379,341.096 208.961,341.458 208.600 C 342.329 207.728,344.000 205.252,344.000 204.831 C 344.000 204.648,344.289 204.258,344.642 203.965 C 344.995 203.673,345.444 203.065,345.641 202.616 C 345.837 202.167,346.171 201.530,346.383 201.200 C 347.468 199.510,350.002 194.668,350.013 194.264 C 350.019 194.009,350.468 192.900,351.009 191.800 C 351.550 190.700,351.994 189.590,351.996 189.332 C 351.998 189.075,352.254 188.355,352.565 187.732 C 353.193 186.476,354.218 183.061,355.067 179.400 C 355.373 178.080,355.823 176.190,356.066 175.200 C 356.326 174.140,356.525 169.041,356.549 162.800 C 356.592 151.525,356.364 149.657,353.963 141.600 C 353.537 140.170,353.191 138.834,353.194 138.631 C 353.202 138.164,351.449 133.770,350.627 132.193 C 350.285 131.537,350.004 130.707,350.002 130.349 C 350.001 129.991,349.748 129.489,349.439 129.233 C 349.131 128.977,348.772 128.342,348.641 127.821 C 348.511 127.301,347.818 125.962,347.102 124.846 C 346.386 123.729,345.350 122.059,344.800 121.134 C 342.064 116.534,336.441 110.153,330.028 104.372 L 328.000 102.544 327.979 85.372 C 327.941 55.036,327.771 47.961,327.045 46.600 C 326.693 45.940,326.404 45.109,326.402 44.754 C 326.401 44.399,326.040 43.650,325.600 43.091 C 325.160 42.531,324.800 41.936,324.800 41.768 C 324.800 41.180,321.334 38.149,319.576 37.200 L 317.800 36.242 298.200 35.993 C 287.420 35.857,278.240 35.662,277.800 35.561 C 277.360 35.460,266.110 35.472,252.800 35.589 M92.800 35.987 L 73.400 36.200 71.400 37.273 C 68.171 39.006,65.345 42.224,64.293 45.366 C 62.798 49.835,62.767 369.682,64.262 374.600 C 65.271 377.923,68.521 381.502,72.000 383.122 L 74.200 384.147 195.200 384.173 L 316.200 384.200 318.723 383.200 C 322.023 381.892,324.556 379.575,325.940 376.600 C 327.886 372.419,327.850 373.635,327.986 306.110 L 328.046 276.021 326.923 274.202 C 326.305 273.202,325.527 271.892,325.194 271.292 C 324.861 270.691,323.888 269.120,323.033 267.800 C 322.177 266.480,320.862 264.410,320.111 263.200 C 319.359 261.990,317.992 259.808,317.072 258.352 C 316.153 256.895,314.950 254.965,314.400 254.062 C 313.276 252.218,313.115 252.142,312.223 253.034 C 311.651 253.606,311.591 259.197,311.605 310.931 C 311.620 362.751,311.561 368.239,310.987 368.659 C 309.906 369.449,79.692 369.192,79.192 368.400 C 78.584 367.439,78.672 60.288,79.280 59.680 C 79.644 59.316,86.392 59.199,107.180 59.196 C 137.128 59.191,137.560 59.171,137.305 57.836 C 136.874 55.582,137.905 51.327,139.409 49.153 C 143.613 43.076,147.555 41.205,156.173 41.194 C 158.828 41.191,161.244 41.033,161.542 40.844 C 162.165 40.449,162.889 37.097,162.545 36.201 C 162.298 35.558,138.591 35.485,92.800 35.987 M29.976 92.889 C 29.726 93.817,29.269 94.937,28.961 95.377 C 28.652 95.818,28.400 96.554,28.400 97.013 C 28.400 97.472,28.136 98.196,27.813 98.624 C 26.118 100.864,29.375 102.129,33.739 100.925 C 34.595 100.689,34.380 97.765,33.395 96.233 C 33.100 95.775,32.737 94.734,32.589 93.919 C 32.124 91.374,30.551 90.754,29.976 92.889 M291.483 106.377 C 298.041 107.520,307.247 111.061,310.519 113.698 L 311.637 114.600 311.611 162.377 C 311.587 205.827,311.525 210.219,310.936 210.870 C 310.239 211.641,301.773 216.000,300.974 216.000 C 300.709 216.000,299.976 216.269,299.346 216.598 C 298.716 216.926,297.908 217.196,297.552 217.198 C 297.196 217.199,295.846 217.537,294.552 217.948 C 288.411 219.901,273.563 219.903,267.448 217.951 C 266.154 217.538,264.804 217.199,264.448 217.198 C 264.092 217.196,263.284 216.926,262.654 216.598 C 262.024 216.269,261.316 216.000,261.081 216.000 C 260.341 216.000,253.330 212.656,251.157 211.267 C 247.185 208.727,245.408 207.363,242.499 204.624 C 239.415 201.719,234.000 195.603,234.000 195.024 C 234.000 194.882,233.817 194.549,233.594 194.283 C 230.594 190.710,226.404 180.725,225.166 174.200 C 223.647 166.192,223.371 162.479,223.979 158.200 C 224.230 156.440,224.593 153.650,224.787 152.000 C 224.981 150.350,225.424 148.331,225.770 147.513 C 226.117 146.695,226.400 145.725,226.400 145.357 C 226.400 144.989,226.779 143.858,227.243 142.844 C 227.707 141.830,228.320 140.460,228.605 139.800 C 230.535 135.331,231.039 134.463,235.249 128.361 C 239.010 122.909,248.638 114.562,253.646 112.412 C 254.171 112.186,254.870 111.840,255.200 111.641 C 256.561 110.823,260.106 109.200,260.537 109.198 C 260.792 109.196,261.467 108.952,262.037 108.654 C 262.608 108.356,263.778 107.988,264.637 107.837 C 265.497 107.685,267.010 107.305,268.000 106.993 C 272.026 105.722,285.671 105.364,291.483 106.377 M331.619 136.800 C 332.235 137.757,333.514 140.820,334.791 144.400 C 337.390 151.688,338.486 165.383,336.999 172.000 C 336.678 173.430,336.223 175.540,335.989 176.690 C 335.755 177.839,335.303 179.279,334.984 179.890 C 334.666 180.500,334.404 181.243,334.402 181.540 C 334.398 182.446,331.090 189.533,329.744 191.520 C 328.053 194.014,328.000 193.131,328.000 162.400 C 328.000 130.650,328.022 130.345,330.056 134.053 C 330.703 135.234,331.407 136.470,331.619 136.800 M311.990 239.426 C 311.188 241.537,311.721 245.200,312.830 245.200 C 315.196 245.200,316.104 242.441,314.529 240.036 C 313.295 238.151,312.544 237.970,311.990 239.426 M19.268 301.692 C 18.635 302.325,18.673 305.396,19.321 305.934 C 19.673 306.227,23.710 306.340,31.821 306.283 L 43.800 306.200 43.922 304.515 C 44.170 301.104,44.749 301.256,31.469 301.239 C 23.023 301.228,19.605 301.355,19.268 301.692 " stroke="none" fill="#3f4952" fill-rule="evenodd"></path><path id="path1" d="M193.000 3.962 C 186.963 6.090,184.986 8.778,184.241 15.874 C 183.325 24.596,182.033 26.439,175.896 27.779 C 173.066 28.396,172.665 28.609,171.339 30.196 C 169.978 31.824,166.699 34.000,165.606 34.000 C 164.165 34.000,162.411 35.314,162.478 36.343 C 162.775 40.906,162.398 41.200,156.244 41.200 C 147.555 41.200,143.628 43.055,139.409 49.153 C 137.900 51.335,136.874 55.584,137.309 57.858 C 137.447 58.578,137.273 58.791,136.441 58.919 C 135.868 59.008,139.630 59.115,144.800 59.158 C 151.367 59.213,154.560 59.390,155.396 59.746 L 156.591 60.256 153.796 61.600 C 152.258 62.340,150.640 63.249,150.200 63.621 C 149.760 63.992,148.916 64.545,148.326 64.848 C 145.549 66.274,142.051 68.168,140.600 69.032 C 139.067 69.944,138.103 70.440,136.800 70.987 C 136.470 71.125,135.541 71.635,134.736 72.119 C 133.930 72.604,132.297 73.568,131.107 74.263 C 127.801 76.193,125.629 81.782,127.691 83.056 C 127.990 83.241,253.130 83.386,262.900 83.212 C 265.402 83.168,261.948 74.000,259.429 74.000 C 259.143 74.000,258.450 73.640,257.891 73.200 C 257.331 72.760,256.615 72.400,256.299 72.400 C 255.983 72.400,255.398 72.040,255.000 71.600 C 254.602 71.160,254.079 70.793,253.838 70.784 C 253.597 70.776,252.410 70.156,251.200 69.406 C 249.990 68.657,248.010 67.511,246.800 66.860 C 245.590 66.209,243.790 65.212,242.800 64.643 C 241.810 64.075,240.550 63.409,240.000 63.164 C 232.292 59.723,232.896 59.323,246.000 59.185 C 250.950 59.134,254.608 59.015,254.129 58.922 C 253.385 58.777,253.290 58.557,253.476 57.410 C 254.947 48.342,246.530 41.200,234.371 41.200 C 229.526 41.200,228.833 40.781,228.623 37.728 C 228.434 34.958,228.468 34.991,224.586 33.807 C 221.446 32.849,221.141 32.661,220.497 31.286 C 219.730 29.651,216.345 27.600,214.413 27.600 C 210.637 27.600,207.755 24.307,207.233 19.396 C 206.702 14.402,205.845 10.249,205.170 9.397 C 201.575 4.864,196.663 2.671,193.000 3.962 M199.573 8.677 C 205.877 12.804,203.009 22.000,195.417 22.000 C 191.604 22.000,190.510 21.267,188.588 17.425 C 185.442 11.138,193.514 4.710,199.573 8.677 M275.400 105.879 C 272.356 106.154,268.592 106.790,266.600 107.367 L 264.600 107.946 266.120 107.973 C 266.956 107.988,268.161 107.730,268.799 107.401 C 270.246 106.652,278.319 106.078,285.400 106.220 C 290.379 106.320,290.447 106.311,287.000 106.005 C 283.312 105.677,278.246 105.622,275.400 105.879 M240.295 122.385 C 239.993 122.817,238.858 124.154,237.773 125.357 C 235.245 128.159,233.060 131.200,233.573 131.200 C 233.792 131.200,234.183 130.795,234.441 130.300 C 234.904 129.412,235.170 129.072,236.781 127.300 C 237.232 126.805,237.600 126.214,237.600 125.987 C 237.600 125.761,237.847 125.480,238.149 125.364 C 238.695 125.155,241.433 121.600,241.048 121.600 C 240.936 121.600,240.598 121.953,240.295 122.385 M208.250 139.591 C 207.893 140.485,207.600 141.569,207.600 142.000 C 207.600 142.431,207.324 143.474,206.986 144.317 C 206.649 145.161,206.120 147.369,205.811 149.225 C 205.502 151.081,205.041 153.680,204.786 155.000 C 204.265 157.696,204.571 169.416,205.221 171.662 C 205.434 172.398,205.773 174.440,205.975 176.200 C 206.177 177.960,206.624 179.940,206.969 180.600 C 207.313 181.260,207.595 182.250,207.596 182.800 C 207.596 183.745,209.589 189.744,209.824 189.509 C 209.885 189.448,209.658 188.409,209.320 187.199 C 208.983 185.990,208.390 183.804,208.002 182.342 C 207.615 180.879,207.186 179.501,207.048 179.278 C 206.471 178.343,205.206 166.631,205.204 162.200 C 205.201 155.330,207.024 143.992,208.855 139.487 C 209.104 138.875,209.216 138.283,209.104 138.171 C 208.992 138.059,208.608 138.698,208.250 139.591 M94.489 212.295 C 94.097 213.250,94.119 231.852,94.513 232.246 C 94.812 232.545,123.915 232.642,124.167 232.344 C 124.234 232.265,124.179 227.610,124.045 222.000 L 123.800 211.800 109.289 211.695 C 95.750 211.597,94.759 211.637,94.489 212.295 M330.200 221.027 C 329.540 221.369,328.010 222.408,326.800 223.335 C 325.590 224.262,323.790 225.556,322.800 226.209 C 321.810 226.863,320.910 227.513,320.800 227.654 C 320.181 228.448,310.803 232.806,309.600 232.858 C 308.256 232.917,308.248 232.926,309.400 233.085 C 311.149 233.325,311.597 234.189,311.625 237.376 C 311.644 239.475,311.744 239.969,312.012 239.300 C 312.719 237.543,315.600 240.162,315.600 242.561 C 315.600 244.194,312.766 245.783,312.070 244.540 C 311.679 243.840,311.196 250.980,311.520 252.685 C 311.667 253.461,311.759 253.498,312.272 252.985 C 313.111 252.146,313.286 252.235,314.400 254.062 C 314.950 254.965,316.153 256.895,317.074 258.352 C 317.994 259.808,319.344 261.964,320.074 263.142 C 320.803 264.320,322.165 266.449,323.100 267.873 C 324.035 269.297,324.805 270.584,324.811 270.731 C 324.818 270.879,325.538 272.076,326.411 273.391 C 327.452 274.958,328.000 276.234,328.000 277.091 C 328.000 277.811,328.180 278.400,328.400 278.400 C 328.620 278.400,328.804 277.995,328.809 277.500 C 328.820 276.382,329.913 277.606,331.042 280.000 C 331.405 280.770,331.935 281.670,332.219 282.000 C 332.504 282.330,333.225 283.590,333.821 284.800 C 334.417 286.010,335.235 287.365,335.639 287.811 C 336.042 288.257,336.784 289.364,337.286 290.271 C 337.789 291.177,339.927 294.502,342.039 297.660 C 348.027 306.615,349.689 309.247,350.698 311.377 C 351.213 312.464,352.437 314.212,353.417 315.260 C 354.398 316.308,355.200 317.443,355.200 317.783 C 355.200 318.122,355.378 318.400,355.595 318.400 C 355.812 318.400,356.265 318.985,356.602 319.700 C 357.500 321.607,358.506 323.234,359.300 324.066 C 359.685 324.470,360.000 324.966,360.000 325.168 C 360.000 327.370,368.145 332.221,372.921 332.864 C 376.729 333.377,381.629 332.750,383.147 331.556 C 383.675 331.140,384.271 330.800,384.470 330.800 C 385.378 330.800,389.577 327.421,390.600 325.868 C 391.040 325.199,391.712 324.190,392.094 323.626 C 393.077 322.173,393.598 320.887,393.614 319.874 C 393.622 319.393,393.886 318.550,394.200 318.000 C 394.842 316.877,395.036 310.593,394.440 310.225 C 394.242 310.103,393.860 309.084,393.591 307.961 C 393.321 306.838,392.493 304.997,391.750 303.869 C 391.008 302.741,390.400 301.611,390.400 301.358 C 390.400 301.105,390.131 300.675,389.803 300.402 C 389.263 299.955,387.595 297.359,385.998 294.484 C 385.667 293.888,384.794 292.509,384.058 291.420 C 383.322 290.332,382.562 289.027,382.370 288.520 C 382.177 288.014,381.835 287.600,381.610 287.600 C 381.384 287.600,381.199 287.375,381.198 287.100 C 381.196 286.825,380.387 285.430,379.400 284.000 C 378.413 282.570,377.604 281.258,377.602 281.084 C 377.599 280.632,375.895 278.260,375.300 277.880 C 375.025 277.704,374.800 277.207,374.800 276.776 C 374.800 276.345,374.440 275.684,374.000 275.307 C 373.560 274.930,373.200 274.369,373.200 274.059 C 373.200 273.749,371.985 271.533,370.500 269.135 C 369.015 266.737,367.547 264.286,367.238 263.687 C 366.929 263.089,366.548 262.510,366.392 262.400 C 366.235 262.290,365.703 261.390,365.208 260.400 C 364.713 259.410,363.879 258.027,363.354 257.327 C 362.829 256.626,362.400 255.946,362.400 255.815 C 362.400 255.684,361.680 254.666,360.800 253.552 C 359.920 252.439,359.200 251.378,359.200 251.193 C 359.200 251.009,358.504 249.810,357.653 248.529 C 356.803 247.248,355.333 244.940,354.387 243.400 C 352.614 240.514,350.363 236.956,349.201 235.200 C 348.837 234.650,348.074 233.180,347.507 231.934 C 346.045 228.723,345.126 228.224,341.257 228.547 C 337.604 228.852,337.392 228.697,334.262 223.440 C 332.522 220.518,331.898 220.147,330.200 221.027 M241.580 260.580 C 240.798 260.868,239.207 261.234,238.043 261.394 C 236.880 261.554,235.449 261.935,234.864 262.240 C 234.279 262.545,233.509 262.796,233.153 262.798 C 230.779 262.807,222.796 267.986,217.889 272.702 C 215.792 274.717,211.200 281.717,211.200 282.898 C 211.200 283.230,210.942 283.717,210.626 283.979 C 210.310 284.241,209.929 285.028,209.780 285.728 C 209.630 286.427,209.282 287.450,209.006 288.000 C 208.269 289.468,207.125 294.581,206.897 297.432 C 206.647 300.542,206.526 300.493,214.520 300.546 C 221.394 300.592,221.600 300.491,221.600 297.084 C 221.600 296.004,221.894 294.464,222.254 293.660 C 222.986 292.028,225.123 287.667,225.919 286.180 C 226.660 284.797,231.596 279.829,232.892 279.162 C 240.653 275.168,241.584 274.800,243.932 274.800 C 247.086 274.800,247.201 274.548,247.195 267.671 C 247.187 259.434,246.623 258.722,241.580 260.580 M101.000 264.800 L 99.800 265.105 101.100 265.153 C 101.815 265.179,102.400 265.020,102.400 264.800 C 102.400 264.580,102.355 264.421,102.300 264.447 C 102.245 264.473,101.660 264.632,101.000 264.800 M19.331 300.460 C 19.093 300.757,18.769 301.450,18.612 302.000 L 18.326 303.000 19.013 302.061 C 19.694 301.131,19.768 301.123,26.750 301.208 C 38.300 301.349,42.757 301.212,41.603 300.752 C 41.054 300.533,38.804 300.379,36.603 300.409 C 34.401 300.439,29.712 300.341,26.182 300.192 C 21.025 299.973,19.679 300.026,19.331 300.460 M18.628 305.800 C 18.828 306.240,19.048 309.196,19.117 312.369 C 19.308 321.130,20.385 322.064,30.893 322.585 C 36.948 322.886,38.939 322.374,41.923 319.750 L 43.800 318.099 43.800 312.483 C 43.800 309.394,43.678 306.744,43.528 306.595 C 43.379 306.446,37.983 306.331,31.537 306.341 C 21.066 306.357,19.735 306.287,19.041 305.679 C 18.301 305.032,18.281 305.037,18.628 305.800 " stroke="none" fill="#e8795b" fill-rule="evenodd"></path><path id="path2" d="M190.300 15.887 C 188.643 16.138,188.870 17.535,190.928 19.744 C 194.370 23.440,200.853 21.738,201.680 16.922 C 201.867 15.834,194.856 15.196,190.300 15.887 M177.000 16.409 C 176.120 16.583,173.870 16.845,172.000 16.991 C 167.683 17.327,158.188 18.974,153.000 20.287 C 150.800 20.844,148.010 21.522,146.800 21.795 C 145.590 22.067,143.700 22.583,142.600 22.941 C 137.083 24.738,135.560 25.200,135.159 25.200 C 134.918 25.200,134.154 25.446,133.460 25.746 C 132.767 26.046,130.850 26.784,129.200 27.386 C 127.550 27.988,125.609 28.733,124.886 29.041 C 124.164 29.348,123.264 29.601,122.886 29.602 C 122.509 29.603,121.030 30.239,119.600 31.015 C 115.844 33.053,114.061 33.817,111.791 34.357 C 109.331 34.944,111.075 34.899,93.400 34.824 C 74.709 34.745,72.550 35.052,68.114 38.421 C 66.548 39.609,64.104 43.014,63.801 44.428 C 63.640 45.183,63.303 46.052,63.054 46.361 C 62.750 46.736,62.534 50.719,62.400 58.407 L 62.200 69.892 59.200 72.896 C 55.175 76.927,52.505 79.822,50.003 82.867 C 48.859 84.260,47.698 85.580,47.424 85.800 C 47.150 86.020,45.515 88.090,43.791 90.400 C 42.066 92.710,39.894 95.542,38.964 96.693 C 38.033 97.844,37.202 98.993,37.118 99.246 C 36.719 100.443,35.229 99.106,34.617 97.001 C 34.272 95.813,33.812 94.731,33.595 94.597 C 33.378 94.463,33.200 93.806,33.200 93.137 C 33.200 92.293,32.821 91.567,31.959 90.762 C 30.507 89.406,30.216 89.497,29.599 91.506 C 29.145 92.981,28.912 93.556,27.247 97.311 C 25.455 101.352,26.035 102.000,31.442 102.000 L 35.524 102.000 36.562 103.771 C 37.133 104.745,37.600 105.826,37.600 106.173 C 37.600 106.519,37.960 107.475,38.400 108.296 C 38.840 109.116,39.200 110.034,39.200 110.334 C 39.200 110.634,39.462 111.446,39.782 112.140 C 40.102 112.833,40.623 114.120,40.940 115.000 C 41.257 115.880,41.917 117.590,42.408 118.800 C 43.955 122.618,44.010 126.066,43.904 213.881 C 43.804 296.493,43.773 299.684,43.068 300.200 C 42.360 300.717,42.362 300.762,43.114 301.514 C 44.027 302.427,44.370 314.444,43.591 318.228 C 43.270 319.784,43.294 320.483,43.693 321.228 C 44.392 322.532,45.720 324.552,46.041 324.800 C 46.184 324.910,47.327 326.260,48.582 327.800 C 49.836 329.340,52.693 332.560,54.931 334.955 C 57.169 337.350,59.166 339.600,59.369 339.955 C 59.572 340.310,60.058 340.829,60.450 341.109 C 62.484 342.565,62.400 341.875,62.400 357.176 C 62.400 376.640,63.510 379.897,71.418 383.637 L 73.837 384.781 100.418 384.804 C 130.355 384.831,128.280 384.653,138.200 388.047 C 142.583 389.547,145.850 390.414,152.800 391.925 C 154.670 392.332,156.830 392.862,157.600 393.105 C 158.370 393.347,160.170 393.663,161.600 393.807 C 163.030 393.952,165.100 394.313,166.200 394.610 C 172.557 396.325,198.589 397.416,209.200 396.412 C 217.818 395.596,224.353 394.798,225.267 394.450 C 225.802 394.247,227.490 393.959,229.020 393.810 C 230.549 393.660,232.395 393.355,233.123 393.130 C 233.851 392.906,236.011 392.378,237.923 391.956 C 244.282 390.554,246.189 390.092,247.400 389.660 C 249.671 388.850,252.603 387.946,254.000 387.624 C 254.770 387.447,256.840 386.788,258.600 386.159 L 261.800 385.017 289.595 384.898 C 316.323 384.784,317.452 384.750,319.021 383.990 C 319.918 383.555,320.795 383.200,320.969 383.200 C 321.840 383.200,326.800 377.873,326.800 376.937 C 326.800 376.745,327.185 375.871,327.656 374.994 C 328.489 373.443,328.510 373.013,328.448 359.000 C 328.413 351.080,328.523 344.122,328.692 343.538 C 329.007 342.451,334.039 336.870,336.067 335.359 C 336.688 334.896,337.665 333.826,338.238 332.982 C 338.812 332.137,339.782 330.895,340.395 330.223 C 342.510 327.902,345.871 323.775,348.972 319.688 C 352.347 315.241,352.469 314.744,350.773 312.363 C 350.348 311.765,350.000 311.104,350.000 310.893 C 350.000 310.682,349.436 309.810,348.747 308.955 C 348.057 308.100,347.062 306.500,346.536 305.400 C 346.009 304.300,345.178 302.825,344.689 302.122 C 344.200 301.419,343.080 299.660,342.200 298.214 C 341.320 296.767,340.082 294.912,339.449 294.092 C 338.816 293.271,338.033 291.970,337.709 291.200 C 337.385 290.430,336.593 289.080,335.949 288.200 C 335.304 287.320,333.796 285.070,332.597 283.200 C 330.383 279.747,329.305 278.400,328.755 278.400 C 328.102 278.400,328.014 283.235,327.858 327.200 C 327.688 375.158,327.785 372.562,326.026 376.400 C 324.577 379.563,322.115 381.856,318.723 383.200 L 316.200 384.200 195.200 384.173 L 74.200 384.147 72.000 383.122 C 68.521 381.502,65.271 377.923,64.262 374.600 C 62.767 369.682,62.798 49.835,64.293 45.366 C 65.348 42.215,68.184 38.991,71.400 37.286 L 73.400 36.227 95.400 35.961 C 107.500 35.815,127.436 35.674,139.701 35.648 C 161.190 35.602,162.057 35.571,163.496 34.800 C 164.316 34.360,165.225 34.000,165.514 34.000 C 166.487 34.000,168.514 32.726,169.557 31.458 C 171.806 28.725,172.645 28.097,174.421 27.810 C 180.280 26.864,184.866 21.298,183.245 17.100 C 182.781 15.900,180.720 15.672,177.000 16.409 M208.014 16.774 C 206.024 20.492,211.082 27.543,215.774 27.592 C 217.409 27.609,219.810 29.221,221.148 31.200 C 222.376 33.018,222.738 33.267,225.232 34.009 C 226.737 34.458,228.079 35.004,228.214 35.223 C 228.373 35.480,237.289 35.641,253.330 35.674 C 267.009 35.703,287.110 35.843,298.000 35.984 L 317.800 36.242 319.576 37.200 C 321.334 38.149,324.800 41.180,324.800 41.768 C 324.800 41.936,325.160 42.531,325.600 43.091 C 326.040 43.650,326.401 44.399,326.402 44.754 C 326.404 45.109,326.693 45.940,327.045 46.600 C 327.771 47.961,327.941 55.036,327.979 85.372 L 328.000 102.544 330.028 104.372 C 336.441 110.153,342.064 116.534,344.800 121.134 C 345.350 122.059,346.386 123.729,347.102 124.846 C 347.818 125.962,348.511 127.301,348.641 127.821 C 348.772 128.342,349.131 128.977,349.439 129.233 C 349.748 129.489,350.001 129.991,350.002 130.349 C 350.004 130.707,350.285 131.537,350.627 132.193 C 351.449 133.770,353.202 138.164,353.194 138.631 C 353.191 138.834,353.537 140.170,353.963 141.600 C 356.364 149.657,356.592 151.525,356.549 162.800 C 356.525 169.041,356.326 174.140,356.066 175.200 C 355.823 176.190,355.373 178.080,355.067 179.400 C 354.218 183.061,353.193 186.476,352.565 187.732 C 352.254 188.355,351.998 189.075,351.996 189.332 C 351.994 189.590,351.550 190.700,351.009 191.800 C 350.468 192.900,350.019 194.009,350.013 194.264 C 350.002 194.668,347.468 199.510,346.383 201.200 C 346.171 201.530,345.837 202.167,345.641 202.616 C 345.444 203.065,344.995 203.673,344.642 203.965 C 344.289 204.258,344.000 204.648,344.000 204.831 C 344.000 205.252,342.329 207.728,341.458 208.600 C 341.096 208.961,340.797 209.379,340.793 209.529 C 340.786 209.827,338.575 212.269,334.348 216.647 C 331.133 219.978,331.225 219.634,333.000 221.708 C 333.770 222.608,334.404 223.537,334.408 223.772 C 334.413 224.007,335.199 225.095,336.156 226.189 L 337.896 228.177 340.648 228.093 C 344.623 227.972,345.823 228.478,346.980 230.760 C 347.506 231.800,348.241 232.902,348.611 233.209 C 348.981 233.516,349.710 234.675,350.229 235.784 C 350.749 236.893,351.518 238.250,351.938 238.800 C 352.863 240.011,355.631 244.342,358.034 248.338 C 359.005 249.954,360.360 251.934,361.044 252.738 C 361.728 253.542,362.508 254.880,362.778 255.710 C 363.048 256.541,363.678 257.711,364.178 258.310 C 364.678 258.910,365.409 260.030,365.802 260.800 C 366.194 261.570,366.859 262.650,367.278 263.200 C 367.697 263.750,369.011 265.730,370.197 267.600 C 373.402 272.655,374.089 273.261,374.614 271.500 C 374.762 271.005,375.213 269.880,375.615 269.000 C 376.018 268.120,376.818 265.780,377.392 263.800 C 377.966 261.820,378.632 259.581,378.871 258.825 C 379.111 258.068,379.539 256.448,379.824 255.225 C 380.109 254.001,380.727 251.560,381.197 249.800 C 382.426 245.199,383.516 239.008,384.191 232.800 C 384.514 229.830,385.006 226.320,385.284 225.000 C 386.117 221.047,385.990 192.223,385.115 186.600 C 384.739 184.180,384.253 180.670,384.036 178.800 C 383.422 173.506,382.440 167.622,382.045 166.877 C 381.848 166.505,381.492 164.940,381.254 163.400 C 380.546 158.823,376.625 145.237,375.597 143.800 C 375.439 143.580,375.184 142.860,375.031 142.200 C 374.734 140.925,371.998 133.918,369.722 128.600 C 368.968 126.840,368.208 125.040,368.031 124.600 C 367.413 123.056,366.385 120.988,365.596 119.700 C 365.158 118.985,364.441 117.815,364.003 117.100 C 363.565 116.385,363.006 115.350,362.761 114.800 C 362.214 113.575,362.138 113.437,359.618 109.140 C 358.503 107.237,356.242 103.649,354.595 101.166 C 352.948 98.684,351.595 96.461,351.589 96.226 C 351.583 95.992,351.036 95.170,350.373 94.400 C 349.711 93.630,348.117 91.650,346.832 90.000 C 342.805 84.829,334.112 74.914,330.200 71.031 L 328.600 69.442 328.477 58.078 C 328.366 47.726,328.285 46.583,327.577 45.262 C 327.150 44.465,326.800 43.648,326.800 43.447 C 326.800 43.247,326.133 42.254,325.317 41.241 C 320.335 35.056,318.940 34.734,297.215 34.771 C 281.028 34.799,278.966 34.616,275.000 32.796 C 273.680 32.191,271.430 31.207,270.000 30.610 C 268.570 30.014,266.809 29.272,266.086 28.963 C 265.364 28.653,264.581 28.400,264.347 28.400 C 264.113 28.400,263.354 28.143,262.660 27.828 C 260.442 26.821,256.239 25.255,255.000 24.973 C 254.340 24.823,252.270 24.169,250.400 23.520 C 238.290 19.314,209.138 14.674,208.014 16.774 M79.280 59.680 C 78.672 60.288,78.584 367.439,79.192 368.400 C 79.691 369.190,309.917 369.450,310.967 368.661 C 311.305 368.408,311.619 367.660,311.664 367.000 C 311.981 362.380,311.536 252.304,311.201 252.639 C 310.941 252.899,310.768 273.032,310.701 310.619 L 310.600 368.200 195.510 368.278 C 106.693 368.337,80.349 368.246,80.110 367.878 C 79.638 367.151,79.610 60.700,80.082 60.116 C 80.381 59.744,86.991 59.640,108.449 59.669 C 123.837 59.690,136.541 59.593,136.680 59.453 C 136.819 59.314,124.069 59.200,108.347 59.200 C 86.646 59.200,79.644 59.316,79.280 59.680 M254.067 59.401 C 254.180 59.514,266.947 59.650,282.437 59.703 L 310.600 59.800 310.705 75.700 C 310.821 93.424,310.979 92.480,308.146 91.002 C 307.516 90.674,306.640 90.398,306.200 90.389 C 305.760 90.380,304.680 90.025,303.800 89.600 C 302.920 89.175,301.699 88.821,301.087 88.814 C 300.475 88.806,299.308 88.522,298.495 88.182 C 297.681 87.842,295.302 87.396,293.207 87.192 C 291.113 86.988,288.771 86.636,288.003 86.410 C 285.960 85.811,275.913 85.935,272.200 86.606 C 270.440 86.924,268.190 87.194,267.200 87.206 C 266.210 87.217,264.680 87.575,263.800 88.000 C 262.920 88.425,261.570 88.780,260.800 88.789 C 260.030 88.798,258.860 89.163,258.200 89.600 C 257.540 90.037,256.594 90.396,256.099 90.397 C 255.603 90.399,254.525 90.760,253.704 91.200 C 252.884 91.640,251.826 92.000,251.355 92.000 C 250.884 92.000,250.283 92.258,250.021 92.574 C 249.759 92.890,249.019 93.264,248.377 93.405 C 247.735 93.546,247.121 93.805,247.012 93.980 C 246.904 94.155,245.777 94.798,244.508 95.408 C 241.730 96.743,238.400 98.824,238.400 99.224 C 238.400 99.383,237.960 99.624,237.423 99.759 C 236.885 99.894,235.850 100.553,235.123 101.225 C 234.395 101.896,233.263 102.841,232.607 103.323 C 228.586 106.278,216.800 119.529,216.800 121.095 C 216.800 121.275,216.440 121.730,216.000 122.107 C 215.560 122.484,215.200 123.042,215.200 123.347 C 215.200 123.652,214.942 124.117,214.626 124.379 C 214.310 124.641,213.938 125.370,213.800 126.000 C 213.662 126.630,213.295 127.355,212.985 127.613 C 212.675 127.870,212.306 128.692,212.166 129.440 C 212.026 130.188,211.765 130.800,211.587 130.800 C 211.408 130.800,211.041 131.475,210.770 132.300 C 210.500 133.125,210.057 134.160,209.787 134.600 C 209.141 135.651,208.698 137.600,209.105 137.600 C 209.444 137.600,209.596 137.280,211.711 132.090 C 212.453 130.270,213.271 128.569,213.530 128.310 C 213.788 128.052,214.001 127.651,214.001 127.420 C 214.004 126.577,219.980 117.373,222.195 114.800 C 223.915 112.802,231.922 104.815,233.687 103.336 C 237.452 100.183,250.799 92.442,252.566 92.386 C 252.805 92.379,253.720 92.025,254.600 91.600 C 255.480 91.175,256.527 90.821,256.926 90.814 C 257.326 90.806,258.046 90.586,258.526 90.324 C 259.340 89.880,263.399 88.843,267.600 88.004 C 278.965 85.737,296.407 87.352,307.329 91.682 C 308.390 92.103,309.740 92.392,310.329 92.324 L 311.400 92.200 311.400 75.800 L 311.400 59.400 282.631 59.297 C 266.808 59.241,253.954 59.287,254.067 59.401 M32.589 93.919 C 32.737 94.734,33.100 95.775,33.395 96.233 C 34.380 97.765,34.595 100.689,33.739 100.925 C 29.375 102.129,26.118 100.864,27.813 98.624 C 28.136 98.196,28.400 97.472,28.400 97.013 C 28.400 96.554,28.652 95.818,28.961 95.377 C 29.269 94.937,29.726 93.817,29.976 92.889 C 30.551 90.754,32.124 91.374,32.589 93.919 M290.926 106.776 C 291.545 106.979,292.266 107.323,292.530 107.542 C 292.793 107.760,294.176 108.069,295.604 108.229 C 297.032 108.389,298.560 108.750,299.000 109.031 C 299.440 109.311,300.475 109.664,301.300 109.815 C 302.125 109.966,302.800 110.237,302.800 110.418 C 302.800 110.598,303.205 110.870,303.700 111.021 C 305.404 111.541,308.935 113.323,309.867 114.133 L 310.800 114.944 310.800 162.681 L 310.800 210.417 309.800 210.873 C 309.250 211.123,308.800 211.480,308.800 211.664 C 308.800 211.849,308.568 212.000,308.285 212.000 C 308.001 212.000,307.063 212.360,306.200 212.800 C 305.337 213.240,304.423 213.600,304.169 213.600 C 303.916 213.600,303.279 213.937,302.754 214.348 C 302.229 214.759,301.173 215.233,300.406 215.400 C 299.639 215.568,298.649 215.931,298.206 216.206 C 297.763 216.482,296.465 216.824,295.323 216.965 C 294.181 217.106,292.561 217.513,291.723 217.870 C 289.543 218.798,273.022 218.805,270.533 217.879 C 269.617 217.538,267.997 217.130,266.933 216.972 C 265.870 216.815,264.373 216.352,263.606 215.943 C 262.839 215.534,261.736 215.200,261.155 215.200 C 260.574 215.200,259.883 214.942,259.621 214.626 C 259.359 214.310,258.633 213.939,258.007 213.802 C 257.381 213.664,255.909 213.030,254.735 212.392 C 253.561 211.755,252.105 211.028,251.500 210.777 C 250.895 210.527,250.400 210.190,250.400 210.028 C 250.400 209.867,249.455 209.130,248.300 208.390 C 247.145 207.651,246.056 206.811,245.880 206.523 C 245.704 206.235,245.380 206.000,245.160 206.000 C 244.504 206.000,237.078 198.229,235.600 195.996 C 235.270 195.497,234.595 194.593,234.100 193.987 C 233.605 193.380,233.200 192.618,233.200 192.291 C 233.200 191.965,232.948 191.489,232.639 191.233 C 232.331 190.977,231.595 189.740,231.004 188.484 C 230.413 187.228,229.675 185.690,229.365 185.068 C 229.054 184.445,228.800 183.628,228.800 183.252 C 228.800 182.877,228.443 181.869,228.007 181.014 C 227.571 180.159,227.031 178.466,226.807 177.253 C 226.582 176.039,226.217 174.934,225.994 174.796 C 224.833 174.079,224.528 156.086,225.597 151.400 C 226.405 147.862,227.257 144.948,227.760 144.000 C 228.052 143.450,228.420 142.460,228.577 141.800 C 228.734 141.140,229.094 140.330,229.377 140.000 C 229.661 139.670,230.021 138.860,230.177 138.200 C 230.334 137.540,230.698 136.730,230.987 136.400 C 231.275 136.070,231.633 135.170,231.782 134.400 C 232.040 133.065,231.995 133.097,230.826 135.086 C 230.152 136.233,229.600 137.293,229.600 137.442 C 229.600 137.591,229.240 138.497,228.800 139.456 C 228.360 140.415,227.640 141.985,227.200 142.944 C 226.760 143.903,226.400 144.989,226.400 145.357 C 226.400 145.725,226.117 146.695,225.770 147.513 C 225.424 148.331,224.981 150.350,224.787 152.000 C 224.593 153.650,224.230 156.440,223.979 158.200 C 223.371 162.479,223.647 166.192,225.166 174.200 C 226.404 180.725,230.594 190.710,233.594 194.283 C 233.817 194.549,234.000 194.882,234.000 195.024 C 234.000 195.603,239.415 201.719,242.499 204.624 C 245.408 207.363,247.185 208.727,251.157 211.267 C 253.330 212.656,260.341 216.000,261.081 216.000 C 261.316 216.000,262.024 216.269,262.654 216.598 C 263.284 216.926,264.092 217.196,264.448 217.198 C 264.804 217.199,266.154 217.538,267.448 217.951 C 273.563 219.903,288.411 219.901,294.552 217.948 C 295.846 217.537,297.196 217.199,297.552 217.198 C 297.908 217.196,298.716 216.926,299.346 216.598 C 299.976 216.269,300.709 216.000,300.974 216.000 C 301.773 216.000,310.239 211.641,310.936 210.870 C 311.525 210.219,311.587 205.827,311.611 162.377 L 311.637 114.600 310.519 113.698 C 308.167 111.802,301.982 109.074,296.600 107.558 C 293.681 106.736,288.715 106.051,290.926 106.776 M262.619 108.369 C 262.494 108.572,261.834 108.861,261.153 109.010 C 260.040 109.255,256.756 110.706,255.200 111.641 C 254.870 111.840,254.171 112.186,253.646 112.412 C 252.045 113.099,245.886 117.281,244.412 118.681 C 243.648 119.407,242.904 120.000,242.759 120.000 C 242.614 120.000,241.986 120.675,241.365 121.500 C 240.292 122.923,240.626 122.856,242.400 121.293 C 242.730 121.002,243.720 120.132,244.600 119.359 C 245.480 118.586,247.010 117.476,248.000 116.894 C 248.990 116.311,250.610 115.275,251.600 114.592 C 254.740 112.425,260.584 109.600,261.926 109.600 C 262.353 109.600,262.917 109.341,263.180 109.024 C 263.443 108.707,264.050 108.372,264.529 108.278 C 265.136 108.160,265.013 108.092,264.124 108.054 C 263.422 108.025,262.745 108.166,262.619 108.369 M105.600 118.586 C 105.600 118.908,105.960 119.365,106.400 119.600 C 107.074 119.961,107.200 119.904,107.200 119.242 C 107.200 118.745,107.531 118.392,108.100 118.282 C 108.595 118.187,108.235 118.084,107.300 118.054 C 106.049 118.014,105.600 118.155,105.600 118.586 M120.655 118.600 C 120.782 118.930,121.046 119.200,121.243 119.200 C 121.439 119.200,121.600 118.930,121.600 118.600 C 121.600 118.270,121.336 118.000,121.013 118.000 C 120.655 118.000,120.515 118.235,120.655 118.600 M328.439 132.727 C 327.834 133.858,327.820 190.915,328.425 192.046 C 328.826 192.796,328.898 192.768,329.744 191.520 C 331.090 189.533,334.398 182.446,334.402 181.540 C 334.404 181.243,334.666 180.500,334.984 179.890 C 335.303 179.279,335.755 177.839,335.989 176.690 C 336.223 175.540,336.678 173.430,336.999 172.000 C 338.486 165.383,337.390 151.688,334.791 144.400 C 333.514 140.820,332.235 137.757,331.619 136.800 C 331.407 136.470,330.703 135.234,330.056 134.053 C 328.970 132.073,328.844 131.970,328.439 132.727 M94.400 136.339 C 94.400 136.541,94.760 136.801,95.200 136.916 C 95.640 137.031,96.000 137.412,96.000 137.763 C 96.000 138.197,96.350 138.392,97.100 138.375 C 98.121 138.351,98.138 138.324,97.341 138.003 C 96.868 137.812,96.363 137.464,96.219 137.230 C 95.834 136.609,94.400 135.906,94.400 136.339 M131.750 136.987 C 131.325 138.094,131.800 138.326,132.519 137.363 C 133.146 136.523,133.157 136.400,132.606 136.400 C 132.259 136.400,131.874 136.664,131.750 136.987 M16.494 140.470 C 16.234 140.982,15.740 142.210,15.396 143.200 C 13.011 150.068,12.400 152.021,12.400 152.785 C 12.400 153.262,12.205 154.018,11.966 154.464 C 11.727 154.910,11.009 157.463,10.369 160.138 C 9.730 162.812,9.009 165.810,8.767 166.800 C 7.967 170.075,6.705 178.180,5.966 184.800 C 5.708 187.110,5.351 190.260,5.173 191.800 C 4.753 195.434,4.753 218.166,5.173 221.800 C 5.351 223.340,5.706 226.490,5.961 228.800 C 6.716 235.616,7.807 241.863,9.559 249.400 C 10.019 251.380,10.643 254.093,10.945 255.428 C 11.248 256.764,11.675 258.204,11.895 258.628 C 12.115 259.053,12.420 260.093,12.573 260.940 C 12.726 261.787,13.092 263.047,13.385 263.740 C 13.679 264.433,14.410 266.350,15.010 268.000 C 16.793 272.905,17.308 273.798,17.720 272.700 C 17.972 272.027,18.259 154.862,18.038 142.976 C 17.989 140.374,17.197 139.088,16.494 140.470 M127.101 168.995 C 127.206 169.543,127.434 169.903,127.608 169.795 C 127.985 169.562,127.638 168.000,127.209 168.000 C 127.045 168.000,126.997 168.448,127.101 168.995 M125.456 187.399 C 125.099 188.330,125.123 188.400,125.800 188.400 C 126.473 188.400,126.549 188.055,126.050 187.266 C 125.780 186.841,125.660 186.868,125.456 187.399 M209.600 190.176 C 209.600 190.493,209.780 190.864,210.000 191.000 C 210.220 191.136,210.400 191.572,210.400 191.970 C 210.400 192.367,210.734 193.121,211.142 193.646 C 211.550 194.171,212.104 195.275,212.373 196.100 C 212.642 196.925,213.028 197.600,213.231 197.600 C 213.434 197.600,213.600 197.936,213.600 198.346 C 213.600 198.756,213.960 199.550,214.400 200.109 C 214.840 200.669,215.200 201.268,215.200 201.442 C 215.200 201.763,217.198 204.837,217.643 205.200 C 217.778 205.310,218.166 205.940,218.506 206.600 C 218.846 207.260,219.676 208.340,220.351 209.000 C 221.026 209.660,221.583 210.502,221.589 210.871 C 221.595 211.241,221.842 211.784,222.137 212.080 C 222.432 212.375,222.881 213.004,223.134 213.477 C 223.387 213.950,225.891 216.188,228.697 218.450 C 231.504 220.713,233.980 222.765,234.200 223.010 C 234.420 223.256,236.400 224.617,238.600 226.035 C 243.863 229.428,244.034 229.531,245.199 230.029 C 245.749 230.264,246.469 230.689,246.799 230.974 C 247.130 231.259,247.917 231.616,248.548 231.766 C 249.180 231.916,249.958 232.301,250.277 232.620 C 250.596 232.939,251.221 233.200,251.665 233.200 C 252.110 233.200,252.931 233.560,253.491 234.000 C 254.050 234.440,255.074 234.800,255.765 234.800 C 256.456 234.800,257.386 235.055,257.831 235.367 C 258.277 235.679,259.352 236.050,260.220 236.193 C 261.089 236.335,262.520 236.703,263.400 237.011 C 264.280 237.320,266.620 237.752,268.600 237.973 C 270.580 238.193,273.010 238.552,274.000 238.769 C 276.940 239.416,287.212 239.301,289.200 238.600 C 290.135 238.270,292.093 237.992,293.550 237.982 C 295.008 237.973,296.920 237.689,297.800 237.352 C 298.680 237.015,300.163 236.579,301.095 236.383 C 302.027 236.187,303.287 235.774,303.895 235.467 C 304.503 235.159,305.657 234.788,306.460 234.643 C 308.123 234.342,309.445 233.200,308.129 233.200 C 307.706 233.200,307.189 233.370,306.980 233.577 C 306.771 233.784,305.880 234.134,305.000 234.354 C 304.120 234.574,302.590 235.013,301.600 235.329 C 289.132 239.306,270.564 239.078,258.400 234.797 C 257.630 234.526,256.010 233.957,254.800 233.533 C 251.032 232.211,242.306 227.948,241.271 226.923 C 240.981 226.636,240.508 226.400,240.220 226.400 C 239.933 226.400,239.479 226.136,239.212 225.814 C 238.944 225.492,237.797 224.603,236.663 223.838 C 235.528 223.074,234.060 221.982,233.400 221.412 C 229.007 217.618,227.648 216.395,226.027 214.776 C 225.022 213.772,223.800 212.422,223.310 211.776 C 222.821 211.129,221.735 209.700,220.899 208.600 C 217.297 203.865,214.048 198.260,211.335 192.100 C 210.279 189.703,209.600 188.950,209.600 190.176 M143.300 213.060 C 142.370 213.444,142.792 214.054,143.900 213.927 C 144.505 213.857,144.965 213.620,144.921 213.400 C 144.829 212.934,144.018 212.764,143.300 213.060 M170.800 213.200 C 170.800 213.420,171.205 213.597,171.700 213.594 C 172.428 213.589,172.485 213.514,172.000 213.200 C 171.224 212.699,170.800 212.699,170.800 213.200 M215.863 213.070 C 215.510 213.424,217.183 215.200,217.870 215.200 C 218.648 215.200,218.509 214.716,217.437 213.700 C 216.403 212.720,216.267 212.666,215.863 213.070 M186.833 228.913 C 186.925 228.975,187.315 229.267,187.700 229.562 C 188.299 230.021,188.400 230.004,188.400 229.449 C 188.400 229.050,188.066 228.800,187.533 228.800 C 187.057 228.800,186.742 228.851,186.833 228.913 M215.920 229.280 C 216.293 229.653,216.507 229.653,216.880 229.280 C 217.253 228.907,217.147 228.800,216.400 228.800 C 215.653 228.800,215.547 228.907,215.920 229.280 M144.202 229.597 C 143.849 230.167,144.375 231.663,144.829 231.382 C 145.310 231.085,145.309 229.715,144.828 229.417 C 144.623 229.291,144.341 229.371,144.202 229.597 M213.017 231.572 C 212.744 232.014,213.375 232.492,213.744 232.122 C 214.125 231.742,214.054 231.200,213.624 231.200 C 213.417 231.200,213.144 231.368,213.017 231.572 M311.067 238.667 C 310.641 239.092,310.759 244.327,311.200 244.600 C 311.454 244.757,311.600 243.671,311.600 241.624 C 311.600 238.391,311.561 238.173,311.067 238.667 M272.800 271.085 C 273.130 271.207,273.625 271.485,273.900 271.703 C 274.257 271.985,274.400 271.912,274.400 271.449 C 274.400 271.000,274.061 270.810,273.300 270.832 C 272.673 270.850,272.458 270.959,272.800 271.085 M17.878 302.255 C 17.725 302.408,17.600 303.238,17.600 304.100 C 17.600 305.896,18.517 306.042,18.726 304.279 C 18.863 303.117,18.318 301.815,17.878 302.255 " stroke="none" fill="#7ac9d8" fill-rule="evenodd"></path><path id="path3" d="M0.000 200.000 L 0.000 400.000 200.000 400.000 L 400.000 400.000 400.000 200.000 L 400.000 0.000 200.000 0.000 L 0.000 0.000 0.000 200.000 M200.600 4.111 C 202.555 5.086,204.310 6.524,205.478 8.106 C 206.245 9.145,206.697 10.358,207.974 14.800 C 208.187 15.539,208.567 15.824,209.431 15.890 C 222.081 16.866,241.833 20.544,250.400 23.520 C 252.270 24.169,254.340 24.823,255.000 24.973 C 256.239 25.255,260.442 26.821,262.660 27.828 C 263.354 28.143,264.113 28.400,264.347 28.400 C 264.581 28.400,265.364 28.653,266.086 28.963 C 266.809 29.272,268.570 30.014,270.000 30.610 C 271.430 31.207,273.680 32.191,275.000 32.796 C 278.966 34.616,281.028 34.799,297.215 34.771 C 318.940 34.734,320.335 35.056,325.317 41.241 C 326.133 42.254,326.800 43.247,326.800 43.447 C 326.800 43.648,327.150 44.465,327.577 45.262 C 328.285 46.583,328.366 47.726,328.477 58.078 L 328.600 69.442 330.200 71.031 C 334.112 74.914,342.805 84.829,346.832 90.000 C 348.117 91.650,349.711 93.630,350.373 94.400 C 351.036 95.170,351.583 95.992,351.589 96.226 C 351.595 96.461,352.948 98.684,354.595 101.166 C 356.242 103.649,358.503 107.237,359.618 109.140 C 362.138 113.437,362.214 113.575,362.761 114.800 C 363.006 115.350,363.565 116.385,364.003 117.100 C 364.441 117.815,365.158 118.985,365.596 119.700 C 366.385 120.988,367.413 123.056,368.031 124.600 C 368.208 125.040,368.968 126.840,369.722 128.600 C 371.998 133.918,374.734 140.925,375.031 142.200 C 375.184 142.860,375.439 143.580,375.597 143.800 C 376.625 145.237,380.546 158.823,381.254 163.400 C 381.492 164.940,381.848 166.505,382.045 166.877 C 382.440 167.622,383.422 173.506,384.036 178.800 C 384.253 180.670,384.739 184.180,385.115 186.600 C 385.990 192.223,386.117 221.047,385.284 225.000 C 385.006 226.320,384.514 229.830,384.191 232.800 C 383.516 239.008,382.426 245.199,381.197 249.800 C 380.727 251.560,380.109 254.001,379.824 255.225 C 379.539 256.448,379.111 258.068,378.871 258.825 C 378.632 259.581,377.969 261.820,377.399 263.800 C 376.828 265.780,376.109 267.940,375.801 268.600 C 373.756 272.980,373.837 273.776,376.761 278.037 C 377.663 279.351,378.400 280.526,378.400 280.649 C 378.400 280.844,379.229 282.116,382.465 286.884 C 382.869 287.480,383.200 288.072,383.200 288.200 C 383.200 288.328,383.540 288.920,383.955 289.516 C 384.371 290.112,385.389 291.680,386.218 293.000 C 387.047 294.320,388.484 296.570,389.411 298.000 C 390.338 299.430,391.432 301.230,391.844 302.000 C 392.255 302.770,392.795 303.670,393.045 304.000 C 393.295 304.330,393.725 305.320,394.002 306.200 C 394.278 307.080,394.702 308.048,394.944 308.352 C 395.964 309.632,395.762 316.871,394.612 320.202 C 388.286 338.532,366.034 338.993,356.151 321.000 C 354.923 318.765,352.724 315.600,352.398 315.600 C 352.220 315.600,350.676 317.442,348.968 319.694 C 345.870 323.776,342.510 327.903,340.395 330.223 C 339.782 330.895,338.812 332.137,338.238 332.982 C 337.665 333.826,336.688 334.896,336.067 335.359 C 334.039 336.870,329.007 342.451,328.692 343.538 C 328.523 344.122,328.413 351.080,328.448 359.000 C 328.510 373.013,328.489 373.443,327.656 374.994 C 327.185 375.871,326.800 376.745,326.800 376.937 C 326.800 377.873,321.840 383.200,320.969 383.200 C 320.795 383.200,319.918 383.555,319.021 383.990 C 317.452 384.750,316.323 384.784,289.595 384.898 L 261.800 385.017 258.600 386.159 C 256.840 386.788,254.770 387.447,254.000 387.624 C 252.603 387.946,249.671 388.850,247.400 389.660 C 246.189 390.092,244.282 390.554,237.923 391.956 C 236.011 392.378,233.851 392.906,233.123 393.130 C 232.395 393.355,230.549 393.660,229.020 393.810 C 227.490 393.959,225.802 394.247,225.267 394.450 C 224.353 394.798,217.818 395.596,209.200 396.412 C 198.589 397.416,172.557 396.325,166.200 394.610 C 165.100 394.313,163.030 393.952,161.600 393.807 C 160.170 393.663,158.370 393.347,157.600 393.105 C 156.830 392.862,154.670 392.332,152.800 391.925 C 145.850 390.414,142.583 389.547,138.200 388.047 C 128.280 384.653,130.355 384.831,100.418 384.804 L 73.837 384.781 71.418 383.637 C 63.510 379.897,62.400 376.640,62.400 357.176 C 62.400 341.875,62.484 342.565,60.450 341.109 C 60.058 340.829,59.572 340.310,59.369 339.955 C 59.166 339.600,57.169 337.350,54.931 334.955 C 52.693 332.560,49.836 329.340,48.582 327.800 C 47.327 326.260,46.188 324.910,46.050 324.800 C 45.557 324.406,44.000 322.025,44.000 321.665 C 44.000 320.569,42.892 320.447,41.600 321.400 C 36.784 324.953,23.133 324.434,19.885 320.573 C 17.976 318.305,17.836 316.116,17.923 290.000 C 17.963 278.055,17.684 274.021,16.686 272.135 C 16.356 271.511,15.599 269.650,15.003 268.000 C 14.407 266.350,13.679 264.433,13.385 263.740 C 13.092 263.047,12.726 261.787,12.573 260.940 C 12.420 260.093,12.115 259.053,11.895 258.628 C 11.675 258.204,11.248 256.764,10.945 255.428 C 10.643 254.093,10.019 251.380,9.559 249.400 C 7.807 241.863,6.716 235.616,5.961 228.800 C 5.706 226.490,5.351 223.340,5.173 221.800 C 4.753 218.166,4.753 195.434,5.173 191.800 C 5.351 190.260,5.708 187.110,5.966 184.800 C 6.705 178.180,7.967 170.075,8.767 166.800 C 9.009 165.810,9.730 162.812,10.369 160.138 C 11.009 157.463,11.727 154.910,11.966 154.464 C 12.205 154.018,12.402 153.236,12.404 152.726 C 12.406 152.217,13.045 150.000,13.825 147.800 C 14.606 145.600,15.432 143.182,15.661 142.426 C 15.891 141.670,16.313 140.680,16.599 140.226 C 17.514 138.776,18.000 135.300,18.000 130.206 C 18.000 122.045,16.908 122.580,33.000 122.855 C 33.880 122.870,35.410 122.830,36.400 122.765 C 38.080 122.656,41.230 123.170,42.948 123.833 C 43.939 124.216,43.699 121.963,42.411 118.800 C 41.919 117.590,41.257 115.880,40.940 115.000 C 40.623 114.120,40.102 112.833,39.782 112.140 C 39.462 111.446,39.200 110.634,39.200 110.334 C 39.200 110.034,38.840 109.116,38.400 108.296 C 37.960 107.475,37.600 106.519,37.600 106.173 C 37.600 105.826,37.133 104.745,36.562 103.771 L 35.524 102.000 31.442 102.000 C 26.035 102.000,25.455 101.352,27.247 97.311 C 28.912 93.556,29.145 92.981,29.599 91.506 C 30.216 89.497,30.507 89.406,31.959 90.762 C 32.821 91.567,33.200 92.293,33.200 93.137 C 33.200 93.806,33.378 94.463,33.595 94.597 C 33.812 94.731,34.272 95.813,34.617 97.001 C 35.229 99.106,36.719 100.443,37.118 99.246 C 37.202 98.993,38.033 97.844,38.964 96.693 C 39.894 95.542,42.066 92.710,43.791 90.400 C 45.515 88.090,47.150 86.020,47.424 85.800 C 47.698 85.580,48.859 84.260,50.003 82.867 C 52.505 79.822,55.175 76.927,59.200 72.896 L 62.200 69.892 62.400 58.407 C 62.534 50.719,62.750 46.736,63.054 46.361 C 63.303 46.052,63.640 45.183,63.801 44.428 C 64.104 43.014,66.548 39.609,68.114 38.421 C 72.550 35.052,74.709 34.745,93.400 34.824 C 111.075 34.899,109.331 34.944,111.791 34.357 C 114.061 33.817,115.844 33.053,119.600 31.015 C 121.030 30.239,122.509 29.603,122.886 29.602 C 123.264 29.601,124.164 29.348,124.886 29.041 C 125.609 28.733,127.550 27.988,129.200 27.386 C 130.850 26.784,132.767 26.046,133.460 25.746 C 134.154 25.446,134.918 25.200,135.159 25.200 C 135.560 25.200,137.083 24.738,142.600 22.941 C 143.700 22.583,145.590 22.067,146.800 21.795 C 148.010 21.522,150.800 20.843,153.000 20.285 C 159.803 18.561,170.886 16.865,180.304 16.108 C 182.619 15.922,182.825 15.827,183.027 14.853 C 185.061 5.065,192.901 0.273,200.600 4.111 M192.600 9.061 C 190.284 10.276,188.585 12.902,188.867 14.830 C 188.999 15.729,189.055 15.737,195.400 15.737 L 201.800 15.738 201.919 14.356 C 202.260 10.391,196.407 7.065,192.600 9.061 M80.071 60.128 C 79.610 60.701,79.648 367.165,80.109 367.877 C 80.471 368.434,310.249 368.568,310.593 368.011 C 310.888 367.534,310.862 235.028,310.567 234.258 C 310.253 233.440,309.240 233.418,307.746 234.198 C 307.116 234.526,306.276 234.796,305.880 234.798 C 305.484 234.799,304.627 235.076,303.975 235.413 C 303.323 235.750,302.027 236.187,301.095 236.383 C 300.163 236.579,298.680 237.015,297.800 237.352 C 296.920 237.689,295.008 237.973,293.550 237.982 C 292.093 237.992,290.135 238.270,289.200 238.600 C 287.212 239.301,276.940 239.416,274.000 238.769 C 273.010 238.552,270.580 238.193,268.600 237.973 C 266.620 237.752,264.280 237.320,263.400 237.011 C 262.520 236.703,261.089 236.335,260.220 236.193 C 259.352 236.050,258.277 235.679,257.831 235.367 C 257.386 235.055,256.456 234.800,255.765 234.800 C 255.074 234.800,254.050 234.440,253.491 234.000 C 252.931 233.560,252.110 233.200,251.665 233.200 C 251.221 233.200,250.596 232.939,250.277 232.620 C 249.958 232.301,249.180 231.916,248.548 231.766 C 247.917 231.616,247.130 231.259,246.799 230.974 C 246.469 230.689,245.749 230.264,245.199 230.029 C 244.034 229.531,243.863 229.428,238.600 226.035 C 236.400 224.617,234.420 223.256,234.200 223.010 C 233.980 222.765,231.504 220.713,228.697 218.450 C 225.891 216.188,223.387 213.950,223.134 213.477 C 222.881 213.004,222.432 212.375,222.137 212.080 C 221.842 211.784,221.595 211.241,221.589 210.871 C 221.583 210.502,221.026 209.660,220.351 209.000 C 219.676 208.340,218.846 207.260,218.506 206.600 C 218.166 205.940,217.778 205.310,217.643 205.200 C 217.198 204.837,215.200 201.763,215.200 201.442 C 215.200 201.268,214.840 200.669,214.400 200.109 C 213.960 199.550,213.600 198.756,213.600 198.346 C 213.600 197.936,213.434 197.600,213.231 197.600 C 213.028 197.600,212.642 196.925,212.373 196.100 C 212.104 195.275,211.550 194.171,211.142 193.646 C 210.734 193.121,210.400 192.459,210.400 192.174 C 210.400 190.087,208.688 188.965,205.529 188.983 C 201.103 189.007,201.444 190.206,201.118 173.481 C 200.964 165.516,200.797 158.280,200.748 157.400 C 200.568 154.153,201.517 139.703,201.966 138.864 C 202.371 138.107,202.769 138.000,205.186 138.000 C 208.072 138.000,209.200 137.455,209.200 136.060 C 209.200 135.685,209.444 135.023,209.743 134.589 C 210.042 134.155,210.506 133.125,210.774 132.300 C 211.042 131.475,211.408 130.800,211.587 130.800 C 211.765 130.800,212.026 130.188,212.166 129.440 C 212.306 128.692,212.675 127.870,212.985 127.613 C 213.295 127.355,213.662 126.630,213.800 126.000 C 213.938 125.370,214.310 124.641,214.626 124.379 C 214.942 124.117,215.200 123.652,215.200 123.347 C 215.200 123.042,215.560 122.484,216.000 122.107 C 216.440 121.730,216.800 121.275,216.800 121.095 C 216.800 119.529,228.586 106.278,232.607 103.323 C 233.263 102.841,234.395 101.896,235.123 101.225 C 235.850 100.553,236.885 99.894,237.423 99.759 C 237.960 99.624,238.400 99.383,238.400 99.224 C 238.400 98.824,241.730 96.743,244.508 95.408 C 245.777 94.798,246.904 94.155,247.012 93.980 C 247.121 93.805,247.735 93.546,248.377 93.405 C 249.019 93.264,249.759 92.890,250.021 92.574 C 250.283 92.258,250.884 92.000,251.355 92.000 C 251.826 92.000,252.884 91.640,253.704 91.200 C 254.525 90.760,255.603 90.399,256.099 90.397 C 256.594 90.396,257.540 90.037,258.200 89.600 C 258.860 89.163,260.030 88.798,260.800 88.789 C 261.570 88.780,262.920 88.425,263.800 88.000 C 264.680 87.575,266.210 87.217,267.200 87.206 C 268.190 87.194,270.440 86.924,272.200 86.606 C 275.913 85.935,285.960 85.811,288.003 86.410 C 288.771 86.636,291.113 86.988,293.207 87.192 C 295.302 87.396,297.681 87.842,298.495 88.182 C 299.308 88.522,300.475 88.806,301.087 88.814 C 301.699 88.821,302.920 89.175,303.800 89.600 C 304.680 90.025,305.760 90.380,306.200 90.389 C 306.640 90.398,307.516 90.674,308.146 91.002 C 310.979 92.480,310.821 93.424,310.705 75.700 L 310.600 59.800 277.400 59.685 C 259.140 59.621,242.517 59.684,240.460 59.825 L 236.721 60.081 238.060 60.905 C 238.797 61.359,240.390 62.270,241.600 62.930 C 242.810 63.590,244.700 64.640,245.800 65.263 C 246.900 65.886,248.295 66.594,248.900 66.837 C 249.505 67.080,250.000 67.413,250.000 67.578 C 250.000 67.743,251.125 68.466,252.500 69.186 C 263.303 74.839,264.137 75.657,264.177 80.637 C 264.190 82.242,264.012 83.744,263.783 83.975 C 263.236 84.525,129.348 84.589,127.904 84.039 C 126.015 83.321,125.724 79.032,127.397 76.566 C 128.513 74.921,130.254 73.200,130.801 73.200 C 131.107 73.200,138.587 69.121,140.400 67.966 C 140.730 67.756,141.573 67.320,142.273 66.998 C 142.973 66.676,143.646 66.249,143.769 66.050 C 143.892 65.851,144.487 65.564,145.092 65.413 C 145.697 65.261,146.284 65.005,146.396 64.845 C 146.595 64.560,150.846 62.047,153.313 60.756 C 154.530 60.119,154.495 60.109,150.172 59.858 C 141.837 59.374,80.488 59.610,80.071 60.128 M289.060 107.102 C 288.958 107.268,289.056 108.393,289.280 109.602 C 289.560 111.116,289.552 112.795,289.256 115.000 C 288.981 117.053,288.891 124.365,289.007 135.400 C 289.105 144.860,289.182 153.860,289.177 155.400 C 289.171 156.940,289.179 163.870,289.194 170.800 C 289.221 183.455,289.064 186.926,288.418 187.971 C 287.704 189.126,282.594 189.508,273.400 189.094 C 267.269 188.817,266.940 188.720,266.550 187.067 C 266.186 185.530,266.245 112.099,266.611 109.932 L 266.870 108.400 265.284 108.400 C 264.362 108.400,263.489 108.651,263.200 109.000 C 262.926 109.330,262.353 109.600,261.926 109.600 C 260.584 109.600,254.740 112.425,251.600 114.592 C 250.610 115.275,248.990 116.311,248.000 116.894 C 244.913 118.710,241.200 122.199,241.200 123.282 C 241.200 123.918,241.849 123.992,248.295 124.091 L 255.390 124.200 255.919 125.304 C 256.343 126.190,256.451 132.562,256.464 157.450 C 256.482 192.122,256.675 189.876,253.706 189.639 C 251.496 189.462,239.708 189.467,237.511 189.646 C 233.722 189.954,233.373 187.938,233.688 167.600 C 233.777 161.823,233.736 145.687,233.629 144.800 C 233.563 144.250,233.621 141.100,233.758 137.800 C 233.946 133.269,233.900 132.069,233.570 132.900 C 233.330 133.505,232.896 134.000,232.606 134.000 C 232.316 134.000,231.875 134.495,231.627 135.100 C 231.378 135.705,230.913 136.650,230.593 137.200 C 230.274 137.750,230.009 138.493,230.006 138.851 C 230.003 139.209,229.742 139.717,229.426 139.979 C 229.110 140.241,228.729 141.028,228.580 141.728 C 228.430 142.427,228.065 143.450,227.768 144.000 C 227.259 144.945,226.413 147.828,225.597 151.400 C 224.528 156.086,224.833 174.079,225.994 174.796 C 226.217 174.934,226.582 176.039,226.807 177.253 C 227.031 178.466,227.571 180.159,228.007 181.014 C 228.443 181.869,228.800 182.877,228.800 183.252 C 228.800 183.628,229.054 184.445,229.365 185.068 C 229.675 185.690,230.413 187.228,231.004 188.484 C 231.595 189.740,232.331 190.977,232.639 191.233 C 232.948 191.489,233.200 191.965,233.200 192.291 C 233.200 192.618,233.605 193.380,234.100 193.987 C 234.595 194.593,235.270 195.497,235.600 195.996 C 237.078 198.229,244.504 206.000,245.160 206.000 C 245.380 206.000,245.704 206.235,245.880 206.523 C 246.056 206.811,247.145 207.651,248.300 208.390 C 249.455 209.130,250.400 209.867,250.400 210.028 C 250.400 210.190,250.895 210.527,251.500 210.777 C 252.105 211.028,253.561 211.755,254.735 212.392 C 255.909 213.030,257.381 213.664,258.007 213.802 C 258.633 213.939,259.359 214.310,259.621 214.626 C 259.883 214.942,260.574 215.200,261.155 215.200 C 261.736 215.200,262.839 215.534,263.606 215.943 C 264.373 216.352,265.870 216.815,266.933 216.972 C 267.997 217.130,269.617 217.538,270.533 217.879 C 273.022 218.805,289.543 218.798,291.723 217.870 C 292.561 217.513,294.181 217.106,295.323 216.965 C 296.465 216.824,297.763 216.482,298.206 216.206 C 298.649 215.931,299.639 215.568,300.406 215.400 C 301.173 215.233,302.229 214.759,302.754 214.348 C 303.279 213.937,303.916 213.600,304.169 213.600 C 304.423 213.600,305.337 213.240,306.200 212.800 C 307.063 212.360,308.001 212.000,308.285 212.000 C 308.568 212.000,308.800 211.849,308.800 211.664 C 308.800 211.480,309.250 211.123,309.800 210.873 L 310.800 210.417 310.800 162.681 L 310.800 114.944 309.867 114.133 C 308.935 113.323,305.404 111.541,303.700 111.021 C 303.205 110.870,302.800 110.598,302.800 110.418 C 302.800 110.237,302.125 109.966,301.300 109.815 C 300.475 109.664,299.440 109.311,299.000 109.031 C 298.560 108.750,297.042 108.391,295.628 108.232 C 294.213 108.074,292.688 107.687,292.239 107.372 C 291.372 106.765,289.374 106.595,289.060 107.102 M108.100 118.282 C 107.531 118.392,107.200 118.745,107.200 119.242 C 107.200 119.904,107.074 119.961,106.400 119.600 C 104.942 118.820,105.423 117.994,107.300 118.054 C 108.235 118.084,108.595 118.187,108.100 118.282 M121.600 118.600 C 121.600 118.930,121.439 119.200,121.243 119.200 C 121.046 119.200,120.782 118.930,120.655 118.600 C 120.515 118.235,120.655 118.000,121.013 118.000 C 121.336 118.000,121.600 118.270,121.600 118.600 M96.219 137.230 C 96.363 137.464,96.868 137.812,97.341 138.003 C 98.138 138.324,98.121 138.351,97.100 138.375 C 96.350 138.392,96.000 138.197,96.000 137.763 C 96.000 137.412,95.640 137.031,95.200 136.916 C 94.760 136.801,94.400 136.541,94.400 136.339 C 94.400 135.906,95.834 136.609,96.219 137.230 M132.519 137.363 C 132.123 137.893,131.738 138.157,131.662 137.950 C 131.418 137.283,131.956 136.400,132.606 136.400 C 133.157 136.400,133.146 136.523,132.519 137.363 M184.506 149.492 C 191.532 149.752,191.210 149.399,191.533 157.215 C 191.673 160.617,191.753 164.480,191.710 165.800 C 191.667 167.120,191.635 172.819,191.640 178.465 C 191.649 188.028,191.600 188.746,190.925 188.959 C 189.911 189.280,169.811 189.377,169.305 189.065 C 169.044 188.904,168.879 185.880,168.858 180.905 C 168.735 151.947,168.770 150.725,169.745 150.100 C 170.852 149.391,176.032 149.177,184.506 149.492 M127.716 168.800 C 127.831 169.239,127.782 169.687,127.608 169.795 C 127.434 169.903,127.206 169.543,127.101 168.995 C 126.875 167.815,127.413 167.643,127.716 168.800 M126.394 188.100 C 126.397 188.265,126.130 188.400,125.800 188.400 C 125.123 188.400,125.099 188.330,125.456 187.399 C 125.705 186.750,126.377 187.252,126.394 188.100 M124.695 211.279 C 125.473 211.925,125.419 232.520,124.638 233.169 C 123.762 233.896,96.065 233.866,94.539 233.137 C 93.408 232.596,93.398 232.560,93.114 227.796 C 92.795 222.441,93.116 212.384,93.633 211.544 C 94.256 210.534,123.496 210.284,124.695 211.279 M144.921 213.400 C 144.965 213.620,144.505 213.857,143.900 213.927 C 143.295 213.996,142.800 213.876,142.800 213.660 C 142.800 212.854,144.766 212.613,144.921 213.400 M172.000 213.200 C 172.485 213.514,172.428 213.589,171.700 213.594 C 171.205 213.597,170.800 213.420,170.800 213.200 C 170.800 212.699,171.224 212.699,172.000 213.200 M217.437 213.700 C 218.509 214.716,218.648 215.200,217.870 215.200 C 217.183 215.200,215.510 213.424,215.863 213.070 C 216.267 212.666,216.403 212.720,217.437 213.700 M188.400 229.449 C 188.400 230.004,188.299 230.021,187.700 229.562 C 187.315 229.267,186.925 228.975,186.833 228.913 C 186.742 228.851,187.057 228.800,187.533 228.800 C 188.066 228.800,188.400 229.050,188.400 229.449 M216.880 229.280 C 216.507 229.653,216.293 229.653,215.920 229.280 C 215.547 228.907,215.653 228.800,216.400 228.800 C 217.147 228.800,217.253 228.907,216.880 229.280 M145.200 230.400 C 145.200 230.814,145.033 231.256,144.829 231.382 C 144.375 231.663,143.849 230.167,144.202 229.597 C 144.567 229.007,145.200 229.516,145.200 230.400 M214.000 231.533 C 214.000 232.054,213.524 232.401,213.138 232.161 C 212.724 231.906,213.081 231.200,213.624 231.200 C 213.831 231.200,214.000 231.350,214.000 231.533 M109.294 258.966 C 102.305 266.480,101.304 267.197,99.584 265.925 C 98.135 264.854,97.883 262.800,99.200 262.800 C 99.640 262.800,100.000 262.980,100.000 263.200 C 100.000 264.208,101.338 263.350,104.440 260.355 C 108.796 256.149,110.016 255.351,110.693 256.266 C 111.111 256.833,110.902 257.237,109.294 258.966 M247.540 259.639 L 248.800 260.078 248.800 267.216 C 248.800 275.178,249.003 274.683,245.516 275.244 C 242.538 275.724,238.104 277.109,237.759 277.667 C 237.623 277.887,236.716 278.407,235.744 278.824 C 231.366 280.701,226.528 285.995,224.565 291.057 C 223.980 292.566,223.219 294.491,222.874 295.337 C 222.122 297.174,221.942 305.539,222.635 306.436 C 223.193 307.161,224.637 310.914,225.190 313.076 C 226.159 316.869,234.862 324.129,239.461 324.981 C 240.307 325.138,242.029 325.612,243.287 326.033 C 246.149 326.992,247.486 326.994,251.225 326.043 C 252.861 325.627,255.168 325.168,256.351 325.023 C 257.827 324.842,259.209 324.305,260.751 323.313 C 265.686 320.141,266.264 320.253,271.433 325.388 C 274.976 328.907,275.293 329.434,274.938 331.209 C 274.501 333.395,266.089 338.446,258.600 341.019 L 255.400 342.119 247.200 341.862 C 237.700 341.565,236.934 341.421,231.743 338.963 C 221.516 334.120,213.342 326.259,210.415 318.455 C 209.703 316.555,208.971 314.640,208.789 314.200 C 205.744 306.824,205.286 295.093,207.791 288.600 C 208.385 287.060,208.967 285.260,209.084 284.600 C 209.201 283.940,209.516 283.130,209.783 282.800 C 210.050 282.470,210.500 281.615,210.783 280.900 C 211.066 280.185,211.441 279.600,211.618 279.600 C 211.794 279.600,212.132 279.015,212.368 278.300 C 212.767 277.093,213.408 276.254,216.617 272.735 C 219.755 269.294,224.755 265.225,225.867 265.207 C 226.123 265.203,226.393 265.049,226.467 264.863 C 226.653 264.392,230.722 262.403,231.533 262.386 C 231.900 262.379,232.920 262.025,233.800 261.600 C 234.680 261.175,235.801 260.821,236.292 260.814 C 236.782 260.806,237.862 260.541,238.692 260.224 C 241.543 259.135,245.369 258.882,247.540 259.639 M274.400 271.449 C 274.400 271.912,274.257 271.985,273.900 271.703 C 273.625 271.485,273.130 271.207,272.800 271.085 C 272.458 270.959,272.673 270.850,273.300 270.832 C 274.061 270.810,274.400 271.000,274.400 271.449 " stroke="none" fill="#f8f8f8" fill-rule="evenodd"></path><path id="path4" d="M193.400 3.198 C 186.485 4.107,182.084 10.919,183.453 18.596 C 183.793 20.503,183.831 20.362,184.300 15.467 C 184.830 9.931,184.791 10.017,188.329 6.562 C 193.140 1.863,200.128 3.040,205.170 9.397 C 205.845 10.249,206.702 14.402,207.233 19.396 C 207.742 24.184,210.662 27.627,214.185 27.592 C 214.655 27.587,213.900 27.025,212.400 26.263 C 208.693 24.379,206.481 19.638,207.993 16.813 C 208.233 16.365,208.249 15.634,208.034 14.939 C 207.841 14.313,207.384 12.786,207.019 11.548 C 205.277 5.634,199.908 2.343,193.400 3.198 M190.892 9.101 C 187.100 12.428,186.831 16.084,190.088 20.018 C 191.527 21.757,197.735 22.992,198.540 21.700 C 198.642 21.535,197.374 21.460,195.722 21.533 L 192.717 21.666 191.004 19.826 C 185.634 14.059,191.822 5.481,198.588 9.313 C 201.756 11.107,203.100 15.943,201.098 18.343 C 200.797 18.704,200.221 19.540,199.820 20.200 L 199.090 21.400 200.379 20.200 C 207.362 13.701,198.057 2.814,190.892 9.101 M183.200 21.142 C 183.200 22.366,180.916 24.916,178.640 26.234 C 176.460 27.497,176.349 27.619,177.600 27.379 C 180.427 26.838,184.682 22.149,183.458 20.924 C 183.316 20.783,183.200 20.881,183.200 21.142 M217.628 28.700 C 219.159 29.476,219.986 30.197,220.432 31.146 C 220.779 31.886,221.385 32.671,221.777 32.891 C 222.565 33.332,222.569 33.341,220.800 30.691 C 219.866 29.292,217.240 27.600,216.002 27.600 C 215.702 27.600,216.434 28.095,217.628 28.700 M172.548 28.249 C 171.866 28.529,168.673 32.424,169.333 32.170 C 169.648 32.049,170.486 31.229,171.194 30.347 C 171.903 29.465,172.869 28.588,173.342 28.397 C 173.814 28.207,173.930 28.054,173.600 28.057 C 173.270 28.060,172.797 28.147,172.548 28.249 M144.000 59.621 C 148.070 59.773,152.120 59.929,153.000 59.968 L 154.600 60.038 153.342 60.719 C 150.370 62.327,146.584 64.575,146.396 64.845 C 146.284 65.005,145.697 65.261,145.092 65.413 C 144.487 65.564,143.892 65.851,143.769 66.050 C 143.646 66.249,142.973 66.676,142.273 66.998 C 141.573 67.320,140.730 67.756,140.400 67.966 C 138.587 69.121,131.107 73.200,130.801 73.200 C 130.254 73.200,128.513 74.921,127.397 76.566 C 125.724 79.032,126.015 83.321,127.904 84.039 C 129.348 84.589,263.236 84.525,263.783 83.975 C 264.012 83.744,264.190 82.242,264.177 80.637 C 264.137 75.657,263.303 74.839,252.500 69.186 C 251.125 68.466,250.000 67.743,250.000 67.578 C 250.000 67.413,249.505 67.080,248.900 66.837 C 248.295 66.594,246.900 65.886,245.800 65.263 C 244.700 64.640,242.810 63.590,241.600 62.930 C 240.390 62.270,238.807 61.364,238.082 60.918 L 236.763 60.106 239.882 59.838 C 241.597 59.690,245.387 59.605,248.304 59.648 C 251.221 59.691,253.726 59.608,253.870 59.463 C 254.015 59.318,250.278 59.218,245.567 59.240 C 232.953 59.299,232.328 59.739,240.000 63.164 C 240.550 63.409,241.810 64.075,242.800 64.643 C 243.790 65.212,245.590 66.209,246.800 66.860 C 248.010 67.511,249.990 68.657,251.200 69.406 C 252.410 70.156,253.597 70.776,253.838 70.784 C 254.079 70.793,254.602 71.160,255.000 71.600 C 255.398 72.040,255.983 72.400,256.299 72.400 C 256.615 72.400,257.331 72.760,257.891 73.200 C 258.450 73.640,259.143 74.000,259.429 74.000 C 261.948 74.000,265.402 83.168,262.900 83.212 C 253.130 83.386,127.990 83.241,127.691 83.056 C 125.629 81.782,127.801 76.193,131.107 74.263 C 132.297 73.568,133.930 72.604,134.736 72.119 C 135.541 71.635,136.470 71.125,136.800 70.987 C 138.103 70.440,139.067 69.944,140.600 69.032 C 142.051 68.168,145.549 66.274,148.326 64.848 C 148.916 64.545,149.760 63.992,150.200 63.621 C 150.640 63.249,152.258 62.340,153.796 61.600 L 156.591 60.256 155.396 59.746 C 154.534 59.378,151.744 59.251,145.400 59.290 L 136.600 59.344 144.000 59.621 M274.518 106.414 C 271.904 106.616,269.537 107.019,268.838 107.380 C 268.179 107.721,267.046 108.025,266.320 108.054 C 265.329 108.095,265.232 108.153,265.930 108.286 C 266.764 108.445,266.834 108.617,266.606 109.964 C 266.244 112.110,266.190 185.544,266.550 187.067 C 266.940 188.720,267.269 188.817,273.400 189.094 C 282.594 189.508,287.704 189.126,288.418 187.971 C 289.064 186.926,289.221 183.455,289.194 170.800 C 289.179 163.870,289.171 156.940,289.177 155.400 C 289.182 153.860,289.105 144.860,289.007 135.400 C 288.891 124.365,288.981 117.053,289.256 115.000 C 289.558 112.756,289.561 111.143,289.268 109.600 C 288.909 107.714,288.943 107.329,289.501 106.900 C 290.039 106.487,289.590 106.400,286.935 106.400 C 285.165 106.400,282.656 106.325,281.359 106.234 C 280.061 106.143,276.983 106.224,274.518 106.414 M239.483 123.995 C 238.447 125.092,237.600 126.082,237.600 126.195 C 237.600 126.308,237.285 126.739,236.900 127.152 C 236.515 127.566,235.840 128.388,235.400 128.978 C 234.960 129.568,234.285 130.399,233.900 130.825 C 233.515 131.251,233.200 131.758,233.200 131.951 C 233.200 132.144,232.930 132.526,232.600 132.800 C 231.844 133.428,231.828 134.000,232.567 134.000 C 232.878 134.000,233.330 133.505,233.570 132.900 C 233.900 132.069,233.946 133.269,233.758 137.800 C 233.621 141.100,233.563 144.250,233.629 144.800 C 233.736 145.687,233.777 161.823,233.688 167.600 C 233.373 187.938,233.722 189.954,237.511 189.646 C 239.708 189.467,251.496 189.462,253.706 189.639 C 256.675 189.876,256.482 192.122,256.464 157.450 C 256.451 132.562,256.343 126.190,255.919 125.304 L 255.390 124.200 248.250 124.091 L 241.110 123.981 241.300 122.991 C 241.538 121.742,241.686 121.660,239.483 123.995 M21.720 122.794 C 18.204 123.086,18.240 123.011,17.939 130.720 C 17.796 134.394,17.549 137.806,17.392 138.303 C 17.230 138.811,17.331 139.751,17.622 140.454 C 18.237 141.938,18.321 271.112,17.708 272.736 C 17.514 273.251,17.490 274.781,17.656 276.136 C 18.039 279.282,18.147 300.770,17.784 301.705 C 17.372 302.767,18.527 302.190,19.008 301.092 C 19.435 300.120,21.119 300.061,36.960 300.460 C 40.776 300.556,42.721 300.453,43.160 300.132 C 43.819 299.651,44.428 131.520,43.791 126.108 C 43.555 124.102,43.483 124.000,42.072 123.631 C 37.215 122.364,36.942 122.331,35.203 122.799 C 34.216 123.065,32.855 123.141,32.036 122.977 C 30.236 122.615,24.985 122.522,21.720 122.794 M205.305 137.897 C 202.844 138.014,202.341 138.162,201.956 138.882 C 201.515 139.706,200.570 154.194,200.748 157.400 C 200.797 158.280,200.964 165.516,201.118 173.481 C 201.444 190.229,201.091 189.008,205.597 188.981 C 208.388 188.965,208.796 189.057,209.148 189.781 C 209.993 191.520,209.602 189.223,208.600 186.562 C 208.050 185.100,207.599 183.431,207.598 182.852 C 207.596 182.274,207.313 181.260,206.969 180.600 C 206.624 179.940,206.177 177.960,205.975 176.200 C 205.773 174.440,205.434 172.398,205.221 171.662 C 204.571 169.416,204.265 157.696,204.786 155.000 C 205.041 153.680,205.502 151.081,205.811 149.225 C 206.120 147.369,206.649 145.161,206.986 144.317 C 207.324 143.474,207.604 142.382,207.609 141.892 C 207.614 141.401,207.965 140.235,208.389 139.300 C 208.897 138.181,208.997 137.627,208.680 137.679 C 208.416 137.723,206.897 137.821,205.305 137.897 M172.400 149.569 C 168.664 149.976,168.783 149.529,168.807 163.032 C 168.848 186.252,168.896 188.812,169.305 189.065 C 169.811 189.377,189.911 189.280,190.925 188.959 C 191.600 188.746,191.649 188.028,191.640 178.465 C 191.635 172.819,191.667 167.120,191.710 165.800 C 191.937 158.844,191.299 151.047,190.445 150.356 C 189.334 149.457,177.976 148.961,172.400 149.569 M98.284 210.800 C 93.047 211.043,93.360 210.637,93.063 217.544 C 92.651 227.120,93.158 232.476,94.539 233.137 C 96.065 233.866,123.762 233.896,124.638 233.169 C 125.419 232.520,125.473 211.925,124.695 211.279 C 124.131 210.811,105.385 210.471,98.284 210.800 M124.045 222.000 C 124.179 227.610,124.234 232.265,124.167 232.344 C 123.915 232.642,94.812 232.545,94.513 232.246 C 94.119 231.852,94.097 213.250,94.489 212.295 C 94.759 211.637,95.750 211.597,109.289 211.695 L 123.800 211.800 124.045 222.000 M337.232 227.739 C 338.253 228.835,338.295 228.842,341.232 228.472 L 344.200 228.098 341.127 228.135 C 338.644 228.166,337.876 228.025,337.127 227.402 C 336.364 226.768,336.382 226.827,337.232 227.739 M348.000 233.030 C 348.000 233.210,348.416 233.997,348.925 234.778 C 350.885 237.792,352.733 240.708,354.387 243.400 C 355.333 244.940,356.803 247.248,357.653 248.529 C 358.504 249.810,359.200 251.009,359.200 251.193 C 359.200 251.378,359.920 252.439,360.800 253.552 C 361.680 254.666,362.400 255.751,362.400 255.965 C 362.400 256.178,362.573 256.460,362.784 256.590 C 363.561 257.070,362.242 254.161,361.038 252.738 C 360.357 251.934,359.005 249.954,358.034 248.338 C 355.631 244.342,352.863 240.011,351.938 238.800 C 351.518 238.250,350.749 236.893,350.229 235.784 C 349.362 233.933,348.000 232.251,348.000 233.030 M309.400 233.493 C 310.549 233.780,310.787 234.332,310.794 236.724 C 310.798 238.036,310.953 238.753,311.200 238.600 C 312.604 237.732,311.315 233.177,309.686 233.246 C 308.844 233.282,308.780 233.338,309.400 233.493 M310.883 248.618 C 310.889 250.940,310.996 252.737,311.120 252.613 C 311.547 252.186,311.687 244.901,311.274 244.646 C 311.015 244.485,310.876 245.893,310.883 248.618 M109.000 256.355 C 108.340 256.770,106.288 258.570,104.440 260.355 C 101.338 263.350,100.000 264.208,100.000 263.200 C 100.000 262.980,99.640 262.800,99.200 262.800 C 97.883 262.800,98.135 264.854,99.584 265.925 C 101.304 267.197,102.305 266.480,109.294 258.966 C 111.568 256.521,111.381 254.857,109.000 256.355 M365.281 260.591 C 365.759 261.576,366.219 262.314,366.303 262.230 C 366.484 262.049,364.868 258.800,364.597 258.800 C 364.494 258.800,364.802 259.606,365.281 260.591 M241.000 259.470 C 240.560 259.568,239.521 259.907,238.692 260.224 C 237.862 260.541,236.782 260.806,236.292 260.814 C 235.801 260.821,234.680 261.175,233.800 261.600 C 232.920 262.025,231.900 262.379,231.533 262.386 C 230.722 262.403,226.653 264.392,226.467 264.863 C 226.393 265.049,226.123 265.203,225.867 265.207 C 224.755 265.225,219.755 269.294,216.617 272.735 C 213.408 276.254,212.767 277.093,212.368 278.300 C 212.132 279.015,211.794 279.600,211.618 279.600 C 211.441 279.600,211.066 280.185,210.783 280.900 C 210.500 281.615,210.050 282.470,209.783 282.800 C 209.516 283.130,209.201 283.940,209.084 284.600 C 208.967 285.260,208.385 287.060,207.791 288.600 C 205.286 295.093,205.744 306.824,208.789 314.200 C 208.971 314.640,209.703 316.555,210.415 318.455 C 213.342 326.259,221.516 334.120,231.743 338.963 C 236.934 341.421,237.700 341.565,247.200 341.862 L 255.400 342.119 258.600 341.019 C 266.089 338.446,274.501 333.395,274.938 331.209 C 275.293 329.434,274.976 328.907,271.433 325.388 C 266.264 320.253,265.686 320.141,260.751 323.313 C 259.209 324.305,257.827 324.842,256.351 325.023 C 255.168 325.168,252.861 325.627,251.225 326.043 C 247.486 326.994,246.149 326.992,243.287 326.033 C 242.029 325.612,240.307 325.138,239.461 324.981 C 234.862 324.129,226.159 316.869,225.190 313.076 C 224.637 310.914,223.193 307.161,222.635 306.436 C 221.942 305.539,222.122 297.174,222.874 295.337 C 223.219 294.491,223.980 292.566,224.565 291.057 C 226.528 285.995,231.366 280.701,235.744 278.824 C 236.716 278.407,237.623 277.887,237.759 277.667 C 238.104 277.109,242.538 275.724,245.516 275.244 C 249.003 274.683,248.800 275.178,248.800 267.216 L 248.800 260.078 247.540 259.639 C 246.311 259.211,242.601 259.115,241.000 259.470 M246.948 260.900 C 247.081 261.395,247.192 264.442,247.195 267.671 C 247.201 274.548,247.086 274.800,243.932 274.800 C 241.584 274.800,240.653 275.168,232.892 279.162 C 231.596 279.829,226.660 284.797,225.919 286.180 C 225.123 287.667,222.986 292.028,222.254 293.660 C 221.894 294.464,221.600 296.004,221.600 297.084 C 221.600 300.491,221.394 300.592,214.520 300.546 C 206.526 300.493,206.647 300.542,206.897 297.432 C 207.125 294.581,208.269 289.468,209.006 288.000 C 209.282 287.450,209.630 286.427,209.780 285.728 C 209.929 285.028,210.310 284.241,210.626 283.979 C 210.942 283.717,211.200 283.230,211.200 282.898 C 211.200 281.717,215.792 274.717,217.889 272.702 C 222.796 267.986,230.779 262.807,233.153 262.798 C 233.509 262.796,234.279 262.545,234.864 262.240 C 235.449 261.935,236.880 261.554,238.043 261.394 C 239.207 261.234,240.798 260.868,241.580 260.580 C 244.030 259.677,246.662 259.834,246.948 260.900 M367.065 263.400 C 367.206 263.840,367.538 264.470,367.803 264.800 C 368.930 266.206,373.200 273.523,373.200 274.048 C 373.200 274.364,373.560 274.930,374.000 275.307 C 374.440 275.684,374.800 276.345,374.800 276.776 C 374.800 277.207,375.025 277.704,375.300 277.880 C 375.895 278.260,377.599 280.632,377.602 281.084 C 377.604 281.258,378.413 282.570,379.400 284.000 C 380.387 285.430,381.196 286.825,381.198 287.100 C 381.199 287.375,381.384 287.600,381.610 287.600 C 381.835 287.600,382.177 288.014,382.370 288.520 C 382.562 289.027,383.322 290.332,384.058 291.420 C 384.794 292.509,385.667 293.888,385.998 294.484 C 387.595 297.359,389.263 299.955,389.803 300.402 C 390.131 300.675,390.400 301.105,390.400 301.358 C 390.400 301.611,391.008 302.741,391.750 303.869 C 392.493 304.997,393.321 306.838,393.591 307.961 C 393.860 309.084,394.242 310.103,394.440 310.225 C 395.036 310.593,394.842 316.877,394.200 318.000 C 393.886 318.550,393.622 319.393,393.614 319.874 C 393.598 320.887,393.077 322.173,392.094 323.626 C 391.712 324.190,391.040 325.199,390.600 325.868 C 389.577 327.421,385.378 330.800,384.470 330.800 C 384.271 330.800,383.675 331.140,383.147 331.556 C 378.699 335.055,367.339 332.778,361.755 327.268 C 360.790 326.316,360.000 325.371,360.000 325.168 C 360.000 324.966,359.685 324.470,359.300 324.066 C 358.506 323.234,357.500 321.607,356.602 319.700 C 356.265 318.985,355.831 318.400,355.638 318.400 C 355.445 318.400,355.185 317.994,355.060 317.498 C 354.936 317.001,354.086 315.876,353.172 314.998 C 351.281 313.180,351.190 314.285,353.064 316.307 C 353.615 316.902,354.688 318.471,355.449 319.794 C 357.524 323.403,357.686 323.654,359.200 325.598 C 369.756 339.152,389.088 336.206,394.612 320.202 C 395.762 316.871,395.964 309.632,394.944 308.352 C 394.702 308.048,394.278 307.080,394.002 306.200 C 393.725 305.320,393.295 304.330,393.045 304.000 C 392.795 303.670,392.255 302.770,391.844 302.000 C 391.432 301.230,390.338 299.430,389.411 298.000 C 388.484 296.570,387.047 294.320,386.218 293.000 C 385.389 291.680,384.371 290.112,383.955 289.516 C 383.540 288.920,383.200 288.328,383.200 288.200 C 383.200 288.072,382.869 287.480,382.465 286.884 C 379.257 282.156,378.400 280.846,378.400 280.668 C 378.400 280.555,377.586 279.249,376.591 277.765 C 375.596 276.281,374.673 274.602,374.539 274.034 C 374.406 273.465,373.856 272.550,373.319 272.000 C 372.781 271.450,371.370 269.470,370.185 267.600 C 368.999 265.730,367.754 263.840,367.419 263.400 L 366.809 262.600 367.065 263.400 M102.400 264.800 C 102.400 265.020,101.815 265.179,101.100 265.153 L 99.800 265.105 101.000 264.800 C 101.660 264.632,102.245 264.473,102.300 264.447 C 102.355 264.421,102.400 264.580,102.400 264.800 M328.809 277.477 C 328.804 277.960,329.122 278.590,329.517 278.877 C 329.911 279.165,330.723 280.246,331.321 281.279 C 331.920 282.313,332.632 283.295,332.905 283.462 C 333.177 283.629,333.085 283.324,332.699 282.783 C 332.314 282.242,331.635 281.080,331.191 280.200 C 329.863 277.568,328.820 276.377,328.809 277.477 M342.000 298.000 C 342.470 298.660,342.944 299.200,343.054 299.200 C 343.164 299.200,342.870 298.660,342.400 298.000 C 341.930 297.340,341.456 296.800,341.346 296.800 C 341.236 296.800,341.530 297.340,342.000 298.000 M343.963 301.127 C 344.391 301.966,345.038 302.899,345.400 303.200 C 345.761 303.500,345.478 302.813,344.769 301.673 C 343.252 299.233,342.862 298.969,343.963 301.127 M346.576 305.392 C 346.939 306.267,347.858 307.782,348.618 308.757 C 349.378 309.733,350.004 310.727,350.009 310.966 C 350.014 311.205,350.376 311.850,350.815 312.400 C 352.126 314.046,350.081 309.888,348.072 306.825 C 345.958 303.602,345.752 303.405,346.576 305.392 M18.015 310.800 C 18.003 316.760,18.395 318.803,19.890 320.580 C 24.055 325.530,41.817 324.515,43.405 319.236 C 43.665 318.369,43.500 318.432,41.747 319.872 C 36.830 323.912,23.702 323.769,20.432 319.641 L 19.200 318.085 19.200 312.519 C 19.200 308.244,19.064 306.773,18.613 306.176 C 18.087 305.481,18.024 305.965,18.015 310.800 " stroke="none" fill="#f3cd75" fill-rule="evenodd"></path></g></svg>