<svg width="19" height="19" viewBox="0 0 19 19" fill="none" xmlns="http://www.w3.org/2000/svg">
<path d="M12.9516 10.7082L12.1637 11.4979L10.745 10.0758L9.7802 9.10765L9.22356 8.55101L8.29063 7.61585L3.65381 2.96865L4.0108 0.927632C4.09789 0.919623 4.18565 0.932249 4.26695 0.964486C4.34825 0.996723 4.42081 1.04766 4.47875 1.11318L9.25473 6.52076L10.1899 7.57949L10.7113 8.1699L11.6683 9.25386L12.9516 10.7082Z" fill="#E1E1E3"/>
<path d="M12.1624 11.498L11.3753 12.2869L9.81334 10.9013L8.84516 10.0422L8.25586 9.5193L7.33183 8.69955L1.80254 3.7948C1.73718 3.73698 1.68634 3.6646 1.65411 3.58351C1.62188 3.50242 1.60916 3.41488 1.61699 3.32797L3.65318 2.96875L8.28889 7.61596L9.22182 8.55111L9.77846 9.10775L10.7433 10.0759L12.1624 11.498Z" fill="#C8C5CC"/>
<path d="M4.01023 0.930176L3.65324 2.96897L1.61816 3.32818L1.77588 1.59146C1.78774 1.46191 1.8446 1.3406 1.9366 1.24861C2.02859 1.15662 2.1499 1.09975 2.27945 1.08789L4.01023 0.930176Z" fill="#AEADB3"/>
<path d="M15.7949 16.9862L17.6385 15.1378L14.096 11.5879L12.2524 13.4367L15.7949 16.9862Z" fill="#A17855"/>
<path d="M14.0957 11.5879L13.8174 11.867L16.8199 14.8758C16.8894 14.9454 16.9284 15.0397 16.9284 15.138C16.9284 15.2363 16.8894 15.3306 16.8199 15.4001L15.5162 16.7071L15.7946 16.9862L17.6382 15.1378L14.0957 11.5879Z" fill="#896848"/>
<path d="M14.6657 11.0175L14.0965 11.5882L13.185 12.5011L13.1698 12.5167L11.6855 14.0048C11.5811 14.1091 11.4395 14.1678 11.2919 14.1678C11.1443 14.1678 11.0028 14.1091 10.8984 14.0048L10.6724 13.7788C10.5682 13.6744 10.5098 13.533 10.5098 13.3856C10.5098 13.2382 10.5682 13.0968 10.6724 12.9924L11.3774 12.2874L12.1645 11.4984L12.9513 10.708L13.6526 10.0048C13.757 9.90042 13.8986 9.8418 14.0462 9.8418C14.1938 9.8418 14.3353 9.90042 14.4397 10.0048L14.6653 10.2311C14.7695 10.3354 14.8281 10.4768 14.8281 10.6242C14.8282 10.7717 14.7698 10.9131 14.6657 11.0175Z" fill="#F9A242"/>
<path d="M14.6652 10.2313L14.4396 10.0049C14.3529 9.91819 14.24 9.86251 14.1184 9.84654C13.9968 9.83057 13.8733 9.8552 13.7672 9.91661C13.8094 9.94098 13.8483 9.97066 13.883 10.0049L14.1086 10.2313C14.2127 10.3356 14.2712 10.477 14.2712 10.6245C14.2712 10.7719 14.2127 10.9133 14.1086 11.0176L13.5393 11.5884L12.6279 12.5013L12.6127 12.5169L11.1283 14.005C11.0941 14.039 11.0555 14.0684 11.0137 14.0925C11.1196 14.1538 11.2428 14.1784 11.3642 14.1625C11.4855 14.1467 11.5983 14.0913 11.685 14.005L13.1694 12.5169L13.1846 12.5013L14.096 11.5884L14.6652 11.0176C14.7694 10.9133 14.8278 10.7719 14.8278 10.6245C14.8278 10.477 14.7694 10.3356 14.6652 10.2313Z" fill="#F69531"/>
<path d="M16.7585 17.8798L18.5294 16.1056C18.6525 15.9822 18.7217 15.815 18.7217 15.6406C18.7217 15.4663 18.6525 15.299 18.5294 15.1756C18.4687 15.1147 18.3966 15.0663 18.3173 15.0333C18.2379 15.0002 18.1528 14.9831 18.0668 14.9829C17.9808 14.9827 17.8957 14.9995 17.8162 15.0323C17.7367 15.065 17.6644 15.1131 17.6035 15.1738L17.6016 15.1756L15.8308 16.9502C15.7078 17.0736 15.6387 17.2407 15.6387 17.415C15.6387 17.5892 15.7078 17.7564 15.8308 17.8798C15.8916 17.9409 15.9639 17.9893 16.0435 18.0224C16.1231 18.0555 16.2084 18.0725 16.2946 18.0725C16.3809 18.0725 16.4662 18.0555 16.5458 18.0224C16.6254 17.9893 16.6977 17.9409 16.7585 17.8798Z" fill="#F9A242"/>
<path d="M18.5292 15.1747C18.4339 15.0792 18.3115 15.0155 18.1786 14.9922C18.0458 14.969 17.909 14.9873 17.787 15.0448C17.856 15.0768 17.9188 15.1208 17.9725 15.1747C18.0957 15.2981 18.1648 15.4653 18.1648 15.6396C18.1648 15.814 18.0957 15.9812 17.9725 16.1046L16.2017 17.8796C16.1478 17.9329 16.085 17.9763 16.0161 18.0079C16.138 18.0656 16.2747 18.0842 16.4075 18.0612C16.5404 18.0382 16.6629 17.9748 16.7583 17.8796L18.5292 16.1054C18.6525 15.9819 18.7218 15.8145 18.7218 15.64C18.7218 15.4655 18.6525 15.2981 18.5292 15.1747Z" fill="#F69531"/>
<path d="M10.1894 7.58168L9.22201 8.55098L8.25605 9.51916L7.33203 8.69941L8.28908 7.61582L9.25429 6.52295L10.1894 7.58168Z" fill="#8B8893"/>
<path d="M9.22201 8.55137L8.25605 9.51955L7.33203 8.69981L8.28908 7.61621L9.22201 8.55137Z" fill="#AEADB3"/>
<path d="M11.6678 9.25633L10.7437 10.0761L9.8134 10.9014L8.84521 10.0423L9.7774 9.10789L10.7107 8.17236L11.6678 9.25633Z" fill="#AEADB3"/>
<path d="M9.77783 9.10789L10.7111 8.17236L11.6682 9.25633L10.7442 10.0761L9.77783 9.10789Z" fill="#8B8893"/>
<path d="M6.06396 10.6707L6.8518 11.4604L8.27049 10.0383L9.23533 9.07014L9.79197 8.5135L10.7249 7.57834L15.361 2.93151L15.004 0.890491C14.917 0.882542 14.8293 0.895197 14.748 0.927432C14.6668 0.959667 14.5943 1.01058 14.5364 1.07604L9.76006 6.48547L8.8249 7.5442L8.30352 8.13461L7.34795 9.21858L6.06396 10.6707Z" fill="#E1E1E3"/>
<path d="M6.85156 11.4605L7.63865 12.2494L9.20059 10.8638L10.168 10.0047L10.7573 9.48182L11.6813 8.66207L17.2106 3.75732C17.276 3.6995 17.3268 3.62712 17.3591 3.54603C17.3913 3.46493 17.404 3.3774 17.3962 3.29049L15.3607 2.93164L10.7247 7.57848L9.79174 8.51363L9.2351 9.07027L8.27025 10.0385L6.85156 11.4605Z" fill="#C8C5CC"/>
<path d="M15.0039 0.89209L15.3609 2.93311L17.396 3.29158L17.2383 1.55486C17.2268 1.42533 17.1703 1.3039 17.0787 1.21164C16.9871 1.11939 16.866 1.06213 16.7365 1.0498L15.0039 0.89209Z" fill="#AEADB3"/>
<path d="M3.21957 16.9491L1.37598 15.1007L4.91844 11.5508L6.76203 13.3996L3.21957 16.9491Z" fill="#A17855"/>
<path d="M4.91822 11.5508L4.63842 11.8298L5.68231 12.8771C5.8211 13.0162 5.89905 13.2047 5.89905 13.4012C5.89905 13.5978 5.8211 13.7863 5.68231 13.9254L2.94141 16.6715L3.21973 16.9502L6.76219 13.4007L4.91822 11.5508Z" fill="#896848"/>
<path d="M4.34827 10.9806L4.91753 11.5513L5.82893 12.4642L5.84415 12.4798L7.32853 13.9679C7.43291 14.0722 7.57447 14.1308 7.72207 14.1308C7.86967 14.1308 8.01123 14.0722 8.11561 13.9679L8.34161 13.7419C8.44574 13.6375 8.50422 13.4961 8.50422 13.3487C8.50422 13.2013 8.44574 13.0599 8.34161 12.9555L7.63653 12.2504L6.84944 11.4615L6.06347 10.6711L5.3621 9.96785C5.31041 9.91612 5.24903 9.87509 5.18147 9.84709C5.11391 9.8191 5.0415 9.80469 4.96837 9.80469C4.89524 9.80469 4.82283 9.8191 4.75527 9.84709C4.68771 9.87509 4.62633 9.91612 4.57464 9.96785L4.34901 10.1942C4.24479 10.2985 4.18617 10.4398 4.18604 10.5872C4.1859 10.7347 4.24424 10.8761 4.34827 10.9806Z" fill="#F9A242"/>
<path d="M8.34322 12.9552L7.63814 12.2502L6.85143 11.4612L6.06359 10.6715L5.3626 9.96756C5.27586 9.88112 5.16304 9.82568 5.04161 9.80985C4.92018 9.79402 4.79692 9.81867 4.69092 9.87999C4.73288 9.9041 4.77154 9.93354 4.80596 9.96756L5.5077 10.6708L6.29553 11.4605L7.08225 12.2494L7.78732 12.9545C7.89145 13.0589 7.94993 13.2003 7.94993 13.3477C7.94993 13.4951 7.89145 13.6365 7.78732 13.7408L7.56133 13.9668C7.5268 14.0011 7.48801 14.0308 7.44592 14.0552C7.55204 14.1165 7.67542 14.1411 7.79694 14.1251C7.91845 14.1091 8.0313 14.0535 8.11797 13.9668L8.34396 13.7408C8.44777 13.6364 8.50597 13.4951 8.50583 13.3479C8.50569 13.2007 8.44722 13.0595 8.34322 12.9552Z" fill="#F69531"/>
<path d="M2.25564 17.842L0.484776 16.0682C0.361636 15.9448 0.29248 15.7775 0.29248 15.6032C0.29248 15.4289 0.361636 15.2616 0.484776 15.1382C0.60712 15.0153 0.773269 14.9459 0.94673 14.9453C1.12019 14.9448 1.28678 15.0131 1.40991 15.1353L1.41214 15.1371L3.183 16.9124C3.30603 17.0358 3.37511 17.203 3.37511 17.3772C3.37511 17.5515 3.30603 17.7186 3.183 17.842C3.12218 17.9031 3.04989 17.9516 2.97029 17.9846C2.89068 18.0177 2.80533 18.0347 2.71913 18.0347C2.63293 18.0347 2.54758 18.0177 2.46798 17.9846C2.38837 17.9516 2.31609 17.9031 2.25526 17.842H2.25564Z" fill="#F9A242"/>
<path d="M3.18346 16.9129L1.4126 15.1376L1.41037 15.1357C1.31513 15.0409 1.193 14.9778 1.0606 14.9549C0.928202 14.932 0.791959 14.9504 0.67041 15.0077C0.73825 15.0396 0.800126 15.0829 0.853359 15.1357L0.855586 15.1376L2.62645 16.9129C2.70118 16.9874 2.75683 17.0789 2.7887 17.1795C2.82056 17.2801 2.82769 17.387 2.80948 17.4909C2.79128 17.5949 2.74827 17.6929 2.6841 17.7767C2.61994 17.8606 2.53651 17.9277 2.4409 17.9724C2.58086 18.0381 2.73953 18.0523 2.88895 18.0125C3.03837 17.9727 3.16895 17.8815 3.25767 17.7548C3.34639 17.6282 3.38755 17.4743 3.37391 17.3203C3.36026 17.1662 3.29269 17.022 3.18309 16.9129H3.18346Z" fill="#F69531"/>
</svg>
