<svg width="20" height="20" viewBox="0 0 20 20" fill="none" xmlns="http://www.w3.org/2000/svg">
<g id="Iconly/Light-Outline/Time Circle">
<g id="Time Circle">
<path id="Fill 1" fill-rule="evenodd" clip-rule="evenodd" d="M10.0001 2.9165C6.09425 2.9165 2.91675 6.094 2.91675 9.99984C2.91675 13.9057 6.09425 17.0832 10.0001 17.0832C13.9059 17.0832 17.0834 13.9057 17.0834 9.99984C17.0834 6.094 13.9059 2.9165 10.0001 2.9165M10.0001 18.3332C5.40508 18.3332 1.66675 14.5948 1.66675 9.99984C1.66675 5.40484 5.40508 1.6665 10.0001 1.6665C14.5951 1.6665 18.3334 5.40484 18.3334 9.99984C18.3334 14.5948 14.5951 18.3332 10.0001 18.3332" fill="#333"/>
<path id="Fill 3" fill-rule="evenodd" clip-rule="evenodd" d="M12.8594 13.0768C12.7503 13.0768 12.6403 13.0484 12.5394 12.9893L9.39777 11.1151C9.20944 11.0018 9.09277 10.7976 9.09277 10.5776V6.5376C9.09277 6.1926 9.37277 5.9126 9.71777 5.9126C10.0636 5.9126 10.3428 6.1926 10.3428 6.5376V10.2226L13.1803 11.9143C13.4761 12.0918 13.5736 12.4751 13.3969 12.7718C13.2794 12.9676 13.0719 13.0768 12.8594 13.0768" fill="#333"/>
</g>
</g>
</svg>
