<svg width="30" height="30" viewBox="0 0 41 42" fill="none" xmlns="http://www.w3.org/2000/svg">
<path d="M39.6288 28.5692C40.4878 27.4736 40.8997 26.2991 40.8471 25.0895C40.7946 23.7572 40.1985 22.7142 39.7077 22.0744C40.2774 20.6544 40.4965 18.4194 38.5945 16.6839C37.2009 15.413 34.8344 14.8432 31.5562 15.001C29.251 15.1062 27.3227 15.5357 27.2439 15.5532H27.2351C26.7968 15.6321 26.3323 15.7285 25.859 15.8337C25.8239 15.2727 25.9203 13.8791 26.9546 10.7412C28.1817 7.00733 28.1116 4.14994 26.7267 2.23917C25.2717 0.231989 22.949 0.0742188 22.2653 0.0742188C21.608 0.0742188 21.0032 0.345934 20.5737 0.845539C19.6008 1.97622 19.7147 4.06229 19.8374 5.02644C18.6805 8.12925 15.4374 15.7373 12.694 17.8496C12.6414 17.8847 12.5975 17.9285 12.5537 17.9723C11.7473 18.8226 11.2039 19.7429 10.8358 20.5493C10.3186 20.2688 9.73139 20.111 9.10031 20.111H3.75366C1.73771 20.111 0.107422 21.7501 0.107422 23.7572V38.0004C0.107422 40.0163 1.74648 41.6466 3.75366 41.6466H9.10031C9.8804 41.6466 10.6079 41.4012 11.2039 40.9805L13.2637 41.2259C13.5792 41.2697 19.1888 41.9797 24.9474 41.8657C25.9905 41.9446 26.9721 41.9884 27.8837 41.9884C29.4526 41.9884 30.82 41.8657 31.9594 41.6203C34.6415 41.0506 36.4734 39.9111 37.4025 38.237C38.1125 36.9573 38.1125 35.6864 37.9985 34.88C39.7428 33.3023 40.0495 31.5581 39.9882 30.331C39.9531 29.621 39.7953 29.0162 39.6288 28.5692ZM3.75366 39.2801C3.0437 39.2801 2.47397 38.7016 2.47397 38.0004V23.7485C2.47397 23.0385 3.05246 22.4688 3.75366 22.4688H9.10031C9.81028 22.4688 10.38 23.0473 10.38 23.7485V37.9916C10.38 38.7016 9.80151 39.2713 9.10031 39.2713H3.75366V39.2801ZM37.385 27.5437C37.0168 27.9294 36.9467 28.5166 37.2272 28.9724C37.2272 28.9812 37.5866 29.5947 37.6304 30.4362C37.6917 31.5844 37.1395 32.6011 35.9826 33.4689C35.5706 33.7844 35.4041 34.3278 35.5794 34.8187C35.5794 34.8274 35.9563 35.9844 35.3427 37.08C34.7555 38.1318 33.4495 38.8856 31.4686 39.3064C29.8821 39.6482 27.7259 39.7095 25.0789 39.4992C25.0438 39.4992 25 39.4992 24.9562 39.4992C19.3203 39.6219 13.6231 38.8856 13.5617 38.8769H13.5529L12.6677 38.7717C12.7203 38.5263 12.7466 38.2633 12.7466 38.0004V23.7485C12.7466 23.3716 12.6852 23.0035 12.58 22.6616C12.7378 22.0744 13.176 20.7684 14.2103 19.6552C18.1458 16.5349 21.9936 6.00812 22.1602 5.55234C22.2303 5.36828 22.2478 5.16668 22.2127 4.96509C22.0637 3.98341 22.1163 2.7826 22.3267 2.42324C22.7912 2.432 24.0446 2.56348 24.7984 3.60651C25.6925 4.84238 25.6574 7.05116 24.6932 9.97867C23.2207 14.4401 23.098 16.7891 24.2638 17.8233C24.8423 18.3405 25.6136 18.3668 26.1745 18.1652C26.7092 18.0425 27.2176 17.9373 27.6996 17.8584C27.7347 17.8496 27.7785 17.8409 27.8136 17.8321C30.5044 17.2449 35.3252 16.8855 36.9993 18.4106C38.4192 19.7078 37.4113 21.4258 37.2973 21.6098C36.973 22.1007 37.0694 22.7405 37.5077 23.1349C37.5164 23.1437 38.4368 24.0114 38.4806 25.1772C38.5157 25.9573 38.1475 26.7549 37.385 27.5437Z" fill="white"/>
</svg>
